<?xml version="1.0" encoding="UTF-8" standalone="no"?>
<!-- Created with Inkscape (http://www.inkscape.org/) -->

<svg
   xmlns:dc="http://purl.org/dc/elements/1.1/"
   xmlns:cc="http://creativecommons.org/ns#"
   xmlns:rdf="http://www.w3.org/1999/02/22-rdf-syntax-ns#"
   xmlns:svg="http://www.w3.org/2000/svg"
   xmlns="http://www.w3.org/2000/svg"
   xmlns:xlink="http://www.w3.org/1999/xlink"
   xmlns:sodipodi="http://sodipodi.sourceforge.net/DTD/sodipodi-0.dtd"
   xmlns:inkscape="http://www.inkscape.org/namespaces/inkscape"
   width="744.09448819"
   height="1052.3622047"
   id="svg2"
   version="1.1"
   inkscape:version="0.48.4 r9939"
   sodipodi:docname="dramatis-personae.svg">
  <defs
     id="defs4" />
  <sodipodi:namedview
     id="base"
     pagecolor="#ffffff"
     bordercolor="#666666"
     borderopacity="1.0"
     inkscape:pageopacity="0.0"
     inkscape:pageshadow="2"
     inkscape:zoom="1"
     inkscape:cx="385.12573"
     inkscape:cy="762.91656"
     inkscape:document-units="px"
     inkscape:current-layer="g4156"
     showgrid="false"
     inkscape:window-width="1680"
     inkscape:window-height="1026"
     inkscape:window-x="1366"
     inkscape:window-y="24"
     inkscape:window-maximized="1" />
  <metadata
     id="metadata7">
    <rdf:RDF>
      <cc:Work
         rdf:about="">
        <dc:format>image/svg+xml</dc:format>
        <dc:type
           rdf:resource="http://purl.org/dc/dcmitype/StillImage" />
        <dc:title></dc:title>
      </cc:Work>
    </rdf:RDF>
  </metadata>
  <g
     inkscape:label="Layer 1"
     inkscape:groupmode="layer"
     id="layer1">
    <g
       id="g3830">
      <path
         inkscape:connector-curvature="0"
         id="path3794"
         d="m 102.5,130.61218 c -0.25,7.25 -0.25,17.25 -0.25,17.25"
         style="fill:none;stroke:#000000;stroke-width:3;stroke-linecap:round;stroke-linejoin:round;stroke-opacity:1;color:#000000;stroke-miterlimit:4;stroke-dasharray:none;stroke-dashoffset:0;marker:none;visibility:visible;display:inline;overflow:visible;enable-background:accumulate" />
      <path
         inkscape:connector-curvature="0"
         id="path3802"
         d="m 115.75,130.86218 c 0,15 -0.25,17.5 -0.25,17.5"
         style="fill:none;stroke:#000000;stroke-width:3;stroke-linecap:round;stroke-linejoin:round;stroke-opacity:1;color:#000000;stroke-miterlimit:4;stroke-dasharray:none;stroke-dashoffset:0;marker:none;visibility:visible;display:inline;overflow:visible;enable-background:accumulate" />
      <path
         sodipodi:nodetypes="sssssssss"
         inkscape:connector-curvature="0"
         id="rect2993"
         d="m 100.71482,134.89113 17.06474,0 c 4.98173,0 10.84903,-8.73845 10.29767,-12.9047 l -4.16089,-31.441127 c -0.2048,-1.5475 -2.29803,-5.32842 -3.60202,-5.32842 l -19.5995,0 c -1.30398,0 -2.353757,1.26147 -2.353757,2.82842 l 0,44.017397 c 0,1.56695 1.049777,2.82843 2.353757,2.82843 z"
         style="color:#000000;fill:#333333;fill-opacity:1;fill-rule:nonzero;stroke:#000000;stroke-width:2;stroke-linecap:butt;stroke-linejoin:miter;stroke-miterlimit:4;stroke-opacity:1;stroke-dasharray:none;stroke-dashoffset:0;marker:none;visibility:visible;display:inline;overflow:visible;enable-background:accumulate" />
      <path
         sodipodi:nodetypes="ssssssssss"
         inkscape:connector-curvature="0"
         id="path2985"
         d="m 96.474874,70.594416 c 4.885956,-2.585877 10.825056,-1.390613 15.468946,1.116435 5.78721,3.124283 11.28661,7.275099 14.80024,12.826882 2.52066,3.982819 3.71033,8.716697 3.8355,13.649851 0.054,2.126666 -1.23314,3.126126 -2.9785,3.213336 -9.8021,0.4898 -19.61036,0.65026 -29.425246,0.59887 -1.802031,-0.009 -4.646681,-0.12848 -4.737866,-2.303863 -0.128714,-3.07069 -0.135796,-6.171829 -0.125254,-9.260583 0.01897,-5.557872 -0.08603,-11.128004 0.268228,-16.672404 0.09774,-1.529712 1.623368,-2.496072 2.893952,-3.168524 z"
         style="fill:#333333;stroke:#000000;stroke-width:2;stroke-linecap:butt;stroke-linejoin:miter;stroke-opacity:1" />
      <path
         inkscape:connector-curvature="0"
         id="path2987"
         d="m 97.387533,73.896159 c 3.828887,-2.207011 7.274937,-1.255156 8.397027,-0.228812 1.12211,1.026344 15.53396,14.347555 14.30562,20.075003 -1.22835,5.727448 -18.35748,4.541834 -22.042819,4.095189 -3.685344,-0.446646 -0.659828,-23.94138 -0.659828,-23.94138 z"
         style="fill:#ffffff;stroke:#000000;stroke-width:1px;stroke-linecap:butt;stroke-linejoin:miter;stroke-opacity:1" />
      <path
         transform="matrix(1.6148755,0,0,1.6148755,-57.009115,-52.180379)"
         d="m 98.641398,83.625893 a 1.2374369,1.2374369 0 1 1 -2.474874,0 1.2374369,1.2374369 0 1 1 2.474874,0 z"
         sodipodi:ry="1.2374369"
         sodipodi:rx="1.2374369"
         sodipodi:cy="83.625893"
         sodipodi:cx="97.403961"
         id="path2989"
         style="color:#000000;fill:#000000;fill-opacity:1;fill-rule:nonzero;stroke:none;stroke-width:70;marker:none;visibility:visible;display:inline;overflow:visible;enable-background:accumulate"
         sodipodi:type="arc" />
      <path
         sodipodi:type="arc"
         style="color:#000000;fill:#000000;fill-opacity:1;fill-rule:nonzero;stroke:none;stroke-width:70;marker:none;visibility:visible;display:inline;overflow:visible;enable-background:accumulate"
         id="path2991"
         sodipodi:cx="97.403961"
         sodipodi:cy="83.625893"
         sodipodi:rx="1.2374369"
         sodipodi:ry="1.2374369"
         d="m 98.641398,83.625893 a 1.2374369,1.2374369 0 1 1 -2.474874,0 1.2374369,1.2374369 0 1 1 2.474874,0 z"
         transform="matrix(1.6148755,0,0,1.6148755,-50.874,-52.180379)" />
      <path
         sodipodi:nodetypes="cc"
         inkscape:connector-curvature="0"
         id="path3013"
         d="m 118,107.61218 c -3,10.5 -11,20 -11,20"
         style="fill:none;stroke:#000000;stroke-width:3;stroke-linecap:round;stroke-linejoin:round;stroke-opacity:1" />
    </g>
    <g
       id="g3840"
       transform="translate(109,0)">
      <path
         style="color:#000000;fill:none;stroke:#000000;stroke-width:3;stroke-linecap:round;stroke-linejoin:round;stroke-miterlimit:4;stroke-opacity:1;stroke-dasharray:none;stroke-dashoffset:0;marker:none;visibility:visible;display:inline;overflow:visible;enable-background:accumulate"
         d="m 102.5,130.61218 c -0.25,7.25 -0.25,17.25 -0.25,17.25"
         id="path3842"
         inkscape:connector-curvature="0" />
      <path
         style="color:#000000;fill:none;stroke:#000000;stroke-width:3;stroke-linecap:round;stroke-linejoin:round;stroke-miterlimit:4;stroke-opacity:1;stroke-dasharray:none;stroke-dashoffset:0;marker:none;visibility:visible;display:inline;overflow:visible;enable-background:accumulate"
         d="m 115.75,130.86218 c 0,15 -0.25,17.5 -0.25,17.5"
         id="path3844"
         inkscape:connector-curvature="0" />
      <path
         style="color:#000000;fill:#501616;fill-opacity:1;fill-rule:nonzero;stroke:#000000;stroke-width:2;stroke-linecap:butt;stroke-linejoin:miter;stroke-miterlimit:4;stroke-opacity:1;stroke-dasharray:none;stroke-dashoffset:0;marker:none;visibility:visible;display:inline;overflow:visible;enable-background:accumulate"
         d="m 100.71482,134.89113 17.06474,0 c 4.98173,0 10.84903,-8.73845 10.29767,-12.9047 l -4.16089,-31.441127 c -0.2048,-1.5475 -2.29803,-5.32842 -3.60202,-5.32842 l -19.5995,0 c -1.30398,0 -2.353757,1.26147 -2.353757,2.82842 l 0,44.017397 c 0,1.56695 1.049777,2.82843 2.353757,2.82843 z"
         id="path3846"
         inkscape:connector-curvature="0"
         sodipodi:nodetypes="sssssssss" />
      <path
         style="fill:none;stroke:#000000;stroke-width:3;stroke-linecap:round;stroke-linejoin:round;stroke-opacity:1"
         d="m 118,107.61218 c -3,10.5 -11,20 -11,20"
         id="path3856"
         inkscape:connector-curvature="0"
         sodipodi:nodetypes="cc" />
      <g
         id="g3884"
         transform="matrix(0.99251069,0.12215781,-0.12215781,0.99251069,11.292456,-13.034064)">
        <path
           sodipodi:nodetypes="ssssssssss"
           inkscape:connector-curvature="0"
           id="path3848"
           d="m 96.474876,70.594413 c 4.885954,-2.585877 10.825054,-1.390613 15.468944,1.116435 5.78721,3.124283 11.28661,7.2751 14.80024,12.826883 2.52066,3.982819 3.71033,8.716697 3.8355,13.649851 0.054,2.126668 -1.23314,3.126128 -2.9785,3.213338 -9.8021,0.4898 -19.61036,0.65026 -29.425244,0.59887 -1.80203,-0.009 -4.64668,-0.12848 -4.73787,-2.303865 -0.12871,-3.07069 -0.13579,-6.171829 -0.12525,-9.260583 0.019,-5.557872 -0.086,-11.128004 0.26823,-16.672405 0.0977,-1.529712 1.62336,-2.496072 2.89395,-3.168524 z"
           style="fill:#501616;stroke:#000000;stroke-width:2;stroke-linecap:butt;stroke-linejoin:miter;stroke-opacity:1" />
        <path
           inkscape:connector-curvature="0"
           id="path3850"
           d="m 97.387536,73.896156 c 3.828884,-2.207011 7.274934,-1.255156 8.397024,-0.228812 1.12211,1.026344 15.53396,14.347556 14.30562,20.075004 -1.22835,5.727448 -18.35748,4.541834 -22.042824,4.095189 -3.68534,-0.446646 -0.65982,-23.941381 -0.65982,-23.941381 z"
           style="fill:#ffffff;stroke:#000000;stroke-width:1px;stroke-linecap:butt;stroke-linejoin:miter;stroke-opacity:1" />
        <path
           inkscape:connector-curvature="0"
           id="path3858"
           d="m 96.749996,81.237179 c 0,0 16.375004,-1.375 16.375004,-0.25 0,1.125 1.25,6.375 -3.625,6.25 -4.875,-0.125 -5.875,-3.75 -5.875,-3.75 0,0 -1.5,3.875 -5.000004,3.75 -3.5,-0.125 -4.25,-3.5 -4.125,-5 0.125,-1.5 2.25,-1 2.25,-1 z"
           style="fill:#333333;stroke:#000000;stroke-width:1px;stroke-linecap:butt;stroke-linejoin:miter;stroke-opacity:1" />
      </g>
    </g>
    <g
       id="g4098">
      <path
         style="color:#000000;fill:none;stroke:#000000;stroke-width:3;stroke-linecap:round;stroke-linejoin:round;stroke-miterlimit:4;stroke-opacity:1;stroke-dasharray:none;stroke-dashoffset:0;marker:none;visibility:visible;display:inline;overflow:visible;enable-background:accumulate"
         d="m 316,130.61218 c -0.25,7.25 -0.25,17.25 -0.25,17.25"
         id="path3891"
         inkscape:connector-curvature="0" />
      <path
         style="color:#000000;fill:none;stroke:#000000;stroke-width:3;stroke-linecap:round;stroke-linejoin:round;stroke-miterlimit:4;stroke-opacity:1;stroke-dasharray:none;stroke-dashoffset:0;marker:none;visibility:visible;display:inline;overflow:visible;enable-background:accumulate"
         d="m 329.25,130.86218 c 0,15 -0.25,17.5 -0.25,17.5"
         id="path3893"
         inkscape:connector-curvature="0" />
      <path
         style="color:#000000;fill:#2d1650;fill-opacity:1;fill-rule:nonzero;stroke:#000000;stroke-width:2;stroke-linecap:butt;stroke-linejoin:miter;stroke-miterlimit:4;stroke-opacity:1;stroke-dasharray:none;stroke-dashoffset:0;marker:none;visibility:visible;display:inline;overflow:visible;enable-background:accumulate"
         d="m 315.21482,137.39113 16.06474,-2.5 c 4.92248,-0.76604 10.84903,-8.73845 10.29767,-12.9047 l -4.16089,-31.441127 c -0.2048,-1.5475 -2.29803,-5.32842 -3.60202,-5.32842 l -19.5995,0 c -1.30398,0 -4.28724,13.262887 -4.35376,14.828417 -0.16666,3.92247 -16.58333,6.34493 -16.25,22.5174 0.24235,11.75802 20.31529,15.02894 21.60376,14.82843 z"
         id="path3895"
         inkscape:connector-curvature="0"
         sodipodi:nodetypes="sssssssss" />
      <path
         style="fill:#2d1650;stroke:#000000;stroke-width:2;stroke-linecap:butt;stroke-linejoin:miter;stroke-opacity:1"
         d="m 309.97487,70.594416 c 4.88596,-2.585877 10.82506,-1.390613 15.46895,1.116435 5.78721,3.124283 11.28661,7.275099 14.80024,12.826882 2.52066,3.982819 3.71033,8.716697 3.8355,13.649851 0.054,2.126666 -1.23314,3.126126 -2.9785,3.213336 -9.8021,0.4898 -19.61036,0.65026 -29.42525,0.59887 -1.80203,-0.009 -4.64668,-0.12848 -4.73786,-2.303863 -0.12872,-3.07069 -0.1358,-6.171829 -0.12526,-9.260583 0.019,-5.557872 -0.086,-11.128004 0.26823,-16.672404 0.0977,-1.529712 1.62337,-2.496072 2.89395,-3.168524 z"
         id="path3897"
         inkscape:connector-curvature="0"
         sodipodi:nodetypes="ssssssssss" />
      <path
         style="fill:#ffffff;stroke:#000000;stroke-width:1px;stroke-linecap:butt;stroke-linejoin:miter;stroke-opacity:1"
         d="m 309.29654,73.896159 c 3.82889,-2.207011 7.27494,-1.255156 8.39703,-0.228812 1.12211,1.026344 15.53396,14.347555 14.30562,20.075003 -1.22835,5.727448 -18.35748,4.541834 -22.04282,4.095189 -3.68534,-0.446646 -0.65983,-23.94138 -0.65983,-23.94138 z"
         id="path3899"
         inkscape:connector-curvature="0" />
      <path
         sodipodi:type="arc"
         style="color:#000000;fill:#333333;fill-opacity:1;fill-rule:nonzero;stroke:none;stroke-width:70;marker:none;visibility:visible;display:inline;overflow:visible;enable-background:accumulate"
         id="path3901"
         sodipodi:cx="97.403961"
         sodipodi:cy="83.625893"
         sodipodi:rx="1.2374369"
         sodipodi:ry="1.2374369"
         d="m 98.641398,83.625893 a 1.2374369,1.2374369 0 1 1 -2.474874,0 1.2374369,1.2374369 0 1 1 2.474874,0 z"
         transform="matrix(1.6148755,0,0,1.0271655,154.49088,-4.0187421)" />
      <path
         transform="matrix(1.6148755,0,0,1.0271655,161.376,-3.939234)"
         d="m 98.641398,83.625893 a 1.2374369,1.2374369 0 1 1 -2.474874,0 1.2374369,1.2374369 0 1 1 2.474874,0 z"
         sodipodi:ry="1.2374369"
         sodipodi:rx="1.2374369"
         sodipodi:cy="83.625893"
         sodipodi:cx="97.403961"
         id="path3903"
         style="color:#000000;fill:#333333;fill-opacity:1;fill-rule:nonzero;stroke:none;stroke-width:70;marker:none;visibility:visible;display:inline;overflow:visible;enable-background:accumulate"
         sodipodi:type="arc" />
      <path
         style="fill:none;stroke:#000000;stroke-width:3;stroke-linecap:round;stroke-linejoin:round;stroke-opacity:1"
         d="m 331.5,107.61218 c -3,10.5 -11,20 -11,20"
         id="path3905"
         inkscape:connector-curvature="0"
         sodipodi:nodetypes="cc" />
      <path
         inkscape:connector-curvature="0"
         id="path3907"
         d="m 318.25,90.112182 c 3.80749,-0.62347 4.85774,4.13173 3.98603,6.941095 0.71695,1.913243 0.009,4.148283 -2.43702,3.407103 -1.67571,1.88155 0.10591,6.46756 -4.18937,6.12025 -2.91112,0.9095 -5.02007,-2.11526 -7.26137,-2.22475 -2.75757,2.32859 -4.06141,-1.70092 -5.01883,-3.68595 -0.86437,-0.84707 0.42995,-3.424926 0.74589,-2.515825 -4.23148,0.238276 -1.01119,-4.285195 0.46597,-5.787558 1.23722,-1.260558 4.40651,0.40405 3.2976,-2.650691 1.05679,-2.657994 3.72674,0.884111 5.80686,-0.671794 1.95467,-0.763927 2.92875,1.582124 4.60424,1.06812 z"
         style="color:#000000;fill:#b3b3b3;stroke:#333333;stroke-width:1;stroke-linecap:round;stroke-linejoin:round;stroke-miterlimit:4;stroke-opacity:1;stroke-dasharray:none;stroke-dashoffset:0;marker:none;visibility:visible;display:inline;overflow:visible;enable-background:accumulate" />
      <path
         style="fill:#2d1650;stroke:#000000;stroke-width:2;stroke-linecap:butt;stroke-linejoin:miter;stroke-opacity:1"
         d="m 353.98356,58.800974 c -2.84292,-4.741009 -12.32491,-2.963258 -17.59602,-3.220919 -6.56885,-0.321091 -11.24083,-0.104635 -17.12026,2.827977 -4.21787,2.103839 -8.50377,5.682053 -10.60307,10.147995 -0.90503,1.925237 -11.59102,2.715596 -11.1386,4.403557 0.76665,2.86032 18.0994,-1.949173 27.10466,1.954672 1.0604,0.459692 12.14231,5.890301 14.7267,5.781281 1.44517,-0.06097 -5.01874,-5.140269 -4.67492,-5.841372 0.87071,-8.526962 8.34206,-12.932031 18.41987,-12.999912 1.44054,-0.0097 0.88164,-3.053279 0.88164,-3.053279 z"
         id="path3916"
         inkscape:connector-curvature="0"
         sodipodi:nodetypes="csssssscsc" />
    </g>
    <g
       id="g3956"
       transform="translate(330.75,0)">
      <g
         id="g4069">
        <path
           transform="translate(-330.75,0)"
           inkscape:connector-curvature="0"
           id="path3991"
           d="m 426.297,99.535793 c -1.65489,-8.461432 -1.68119,-17.181756 -0.63558,-25.720594 3.21843,-7.094168 12.33095,-2.69327 17.50889,-0.559027 5.49341,4.292059 6.82129,11.715351 9.73883,17.714578 3.66699,8.167321 -7.04899,11.05943 -13.12088,10.93425 -4.47884,-0.21264 -9.76656,0.73388 -13.49126,-2.369207 z"
           style="fill:#ffffff;stroke:#000000;stroke-width:1px;stroke-linecap:butt;stroke-linejoin:miter;stroke-opacity:1" />
        <path
           transform="translate(-330.75,0)"
           d="m 432.65625,63.53125 c -1.69721,0.07599 -2.73357,0.428812 -3.3125,1.0625 -0.49608,0.543008 -0.57439,1.275194 -0.5,2.0625 -0.28022,-0.04819 -0.56453,-0.03959 -0.8125,0.09375 -0.36774,0.197737 -0.66598,0.539742 -1.03125,0.9375 -0.73054,0.795516 -1.62087,1.875222 -2.90625,2.71875 -1.46703,0.96274 -1.73852,1.956326 -1.75,2.6875 -0.006,0.365587 0.0174,0.673438 0,0.84375 -0.009,0.08516 -0.008,0.125716 -0.0312,0.15625 -0.0234,0.03053 -0.081,0.06098 -0.1875,0.09375 -0.72456,0.222941 -1.12941,0.981418 -1.5,1.875 -0.37059,0.893582 -0.68348,1.962118 -1.03125,2.875 -0.20641,0.541828 -0.0979,1.0676 0.125,1.53125 0.22286,0.46365 0.54081,0.877131 0.875,1.21875 0.33419,0.341619 0.67116,0.632519 0.84375,0.8125 -0.0776,0.04342 -0.15825,0.05984 -0.21875,0.125 -0.11764,0.126697 -0.22508,0.31047 -0.3125,0.5 -0.17483,0.37906 -0.3308,0.873628 -0.46875,1.5 -0.27591,1.252744 -0.48473,2.979205 -0.75,4.96875 -0.134,1.005017 -0.18056,1.699523 -0.0312,2.21875 0.0747,0.259613 0.21331,0.469231 0.40625,0.625 0.19294,0.155769 0.41586,0.234951 0.6875,0.28125 1.03496,0.176397 2.73449,-0.111305 5.46875,-0.21875 0.0457,0.03108 0.0978,0.05651 0.125,0.0625 0.0356,0.0078 0.0608,-0.0018 0.0937,0 0.0659,0.0036 0.14242,0.0066 0.25,0 0.21516,-0.01313 0.55105,-0.05829 1.0625,-0.125 0.29724,-0.03877 0.53646,-0.136292 0.71875,-0.3125 0.18229,-0.176208 0.29267,-0.409818 0.34375,-0.65625 0.10215,-0.492864 0.0172,-1.048246 -0.125,-1.65625 -0.28443,-1.216008 -0.78125,-2.61647 -0.78125,-3.34375 0,-1.605761 0.70766,-4.058977 -0.21875,-6.375 -0.42235,-1.055876 -0.29169,-1.541798 0,-2.125 0.29169,-0.583202 0.78535,-1.251471 1.0625,-2.40625 0.26708,-1.112841 0.34527,-1.541282 0.4375,-1.65625 0.0461,-0.05748 0.12524,-0.08779 0.3125,-0.15625 0.18726,-0.06846 0.46859,-0.15445 0.875,-0.3125 0.67629,-0.263002 1.02164,-0.427075 1.25,-0.65625 0.52725,0.04843 1.19181,0.111999 2.1875,0.15625 0.85885,0.03817 2.09696,0.78162 3.4375,2 1.34054,1.21838 2.7739,2.887666 4.15625,4.59375 2.76471,3.412167 5.23709,7.02201 6.15625,8.125 0.86802,1.041631 1.38556,1.960553 1.90625,2.625 0.52069,0.664447 1.11029,1.110972 2.03125,1.0625 1.72872,-0.09099 4.71161,-0.741542 6.40625,-1.1875 1.81156,-0.476726 3.41025,-2.387033 2.9375,-4.65625 -0.20121,-0.965776 0.0947,-2.3364 0.5625,-3.625 0.46777,-1.2886 1.10639,-2.487722 1.53125,-3.125 0.16292,-0.244384 0.17704,-0.559955 0.0937,-0.84375 -0.0833,-0.283795 -0.24696,-0.57818 -0.46875,-0.875 -0.44359,-0.59364 -1.11494,-1.215501 -1.875,-1.8125 -0.76006,-0.596999 -1.62722,-1.146274 -2.40625,-1.5625 -0.77903,-0.416226 -1.47832,-0.723669 -2.03125,-0.75 -0.37303,-0.01776 -0.59628,-0.180736 -0.8125,-0.53125 -0.21622,-0.350514 -0.37782,-0.884766 -0.5,-1.46875 -0.24437,-1.167968 -0.33945,-2.56684 -0.71875,-3.5625 -0.2249,-0.590372 -0.85911,-1.045384 -1.6875,-1.46875 -0.82839,-0.423366 -1.86352,-0.802069 -2.96875,-1.125 -2.21047,-0.645862 -4.66028,-1.0793 -6.03125,-1.125 -1.38793,-0.04626 -2.61194,0.425929 -3.5625,0.96875 -0.83667,0.477785 -1.40162,0.959704 -1.71875,1.375 -0.093,-0.228711 -0.2115,-0.558069 -0.5,-0.90625 -0.67608,-0.815939 -2.08132,-1.666135 -5.09375,-1.53125 z"
           id="path4040"
           style="fill:none;stroke:#000000;stroke-width:2;stroke-linecap:butt;stroke-linejoin:miter;stroke-opacity:1"
           inkscape:original="M 432.65625 63.8125 C 429.32512 63.961655 428.83621 65.174595 429.125 67 C 427.78914 66.234801 426.90165 68.884855 424.25 70.625 C 421.42157 72.481155 423.3678 74.083947 422.21875 74.4375 C 421.0697 74.791053 420.55086 77.175095 419.84375 79.03125 C 419.13665 80.887405 422.48299 82.56786 421.6875 82.65625 C 420.892 82.74464 420.46783 85.647524 419.9375 89.625 C 419.40717 93.602476 420.55209 92.364277 426.5625 92.1875 C 426.5625 92.1875 425.68581 92.452665 427.71875 92.1875 C 429.75167 91.922335 427.625 88.148129 427.625 86.46875 C 427.625 84.789372 428.32138 82.397208 427.4375 80.1875 C 426.55362 77.977791 427.96967 77.709709 428.5 75.5 C 429.03033 73.290293 428.69026 73.806219 430.28125 73.1875 C 431.05249 72.887573 431.39072 72.722894 431.53125 72.53125 C 432.05498 72.58389 432.75922 72.60944 433.8125 72.65625 C 437.78997 72.833027 446.01348 85.378679 447.78125 87.5 C 449.54901 89.62132 449.82062 91.15089 451.5 91.0625 C 453.17937 90.97411 456.16437 90.348192 457.84375 89.90625 C 459.52313 89.464308 461.03569 87.68382 460.59375 85.5625 C 460.1518 83.44118 461.83486 79.919576 462.71875 78.59375 C 463.60263 77.267925 458.10615 73.27589 456.25 73.1875 C 454.39384 73.09911 454.67586 69.293656 453.96875 67.4375 C 453.26164 65.581345 446.1829 63.99464 443.53125 63.90625 C 440.8796 63.81786 438.75444 65.605394 438.3125 66.3125 C 437.87056 67.019607 438.57827 63.547335 432.65625 63.8125 z "
           inkscape:radius="0.26630011"
           sodipodi:type="inkscape:offset" />
        <path
           inkscape:connector-curvature="0"
           id="path3958"
           d="m 102.5,130.61218 c -0.25,7.25 -0.25,17.25 -0.25,17.25"
           style="color:#000000;fill:none;stroke:#000000;stroke-width:3;stroke-linecap:round;stroke-linejoin:round;stroke-miterlimit:4;stroke-opacity:1;stroke-dasharray:none;stroke-dashoffset:0;marker:none;visibility:visible;display:inline;overflow:visible;enable-background:accumulate" />
        <path
           inkscape:connector-curvature="0"
           id="path3960"
           d="m 115.75,130.86218 c 0,15 -0.25,17.5 -0.25,17.5"
           style="color:#000000;fill:none;stroke:#000000;stroke-width:3;stroke-linecap:round;stroke-linejoin:round;stroke-miterlimit:4;stroke-opacity:1;stroke-dasharray:none;stroke-dashoffset:0;marker:none;visibility:visible;display:inline;overflow:visible;enable-background:accumulate" />
        <path
           sodipodi:nodetypes="ssssssscss"
           inkscape:connector-curvature="0"
           id="path3962"
           d="m 96.71482,141.14113 27.06474,0.125 c 4.98168,0.023 -2.83668,-18.34474 -2.45233,-22.5297 l 2.58911,-28.191127 c 0.14276,-1.554451 -2.29803,-5.32842 -3.60202,-5.32842 l -19.5995,0 c -1.30398,0 3.38893,12.785784 -1.103757,16.328417 -2.457411,1.93776 -11.670403,7.37792 -1.25,17.81688 l -4,18.95052 c -0.323615,1.53317 1.049791,2.82241 2.353757,2.82843 z"
           style="color:#000000;fill:#decd87;fill-opacity:1;fill-rule:nonzero;stroke:#000000;stroke-width:2;stroke-linecap:butt;stroke-linejoin:miter;stroke-miterlimit:4;stroke-opacity:1;stroke-dasharray:none;stroke-dashoffset:0;marker:none;visibility:visible;display:inline;overflow:visible;enable-background:accumulate" />
        <path
           sodipodi:nodetypes="csssssc"
           inkscape:connector-curvature="0"
           id="path4033"
           d="m 111.83104,102.1978 c 13.17982,-1.44001 16.6767,-2.800122 18.39708,-4.143976 1.72037,-1.343853 1.40322,-8.085788 -0.83373,-8.444687 -4.61553,-0.740516 -28.71946,1.626298 -31.864888,2.948021 -1.82209,0.765652 -5.979244,3.053969 -5.864044,4.108355 0.115201,1.054385 0.186144,4.958857 2.068237,5.909117 1.882113,0.95025 18.097355,-0.37683 18.097365,-0.37683 z"
           style="fill:#ffffff;stroke:#000000;stroke-width:2;stroke-linecap:butt;stroke-linejoin:miter;stroke-opacity:1" />
        <path
           inkscape:connector-curvature="0"
           id="path4031"
           d="m 95.81217,92.19956 c -6.01041,0.176777 -7.15946,1.414214 -6.62913,-2.563262 0.53033,-3.977476 0.97227,-6.894291 1.76777,-6.98268 0.79549,-0.08839 -2.56326,-1.767767 -1.85616,-3.623922 0.70711,-1.856155 1.23744,-4.242641 2.38649,-4.596194 1.14905,-0.353553 -0.7955,-1.944544 2.03293,-3.800699 2.82843,-1.856155 3.62392,-4.772971 5.12652,-3.447145 1.50261,1.325825 2.20971,3.71231 2.20971,4.507805 0,0.795495 0.26517,0.883884 -1.32582,1.502602 -1.59099,0.618719 -1.23744,0.08839 -1.76777,2.298097 -0.53033,2.209709 -1.94454,2.474874 -1.06066,4.684583 0.88388,2.209708 0.17678,4.596194 0.17678,6.275572 0,1.679379 2.12132,5.480078 0.0884,5.745243 -2.03294,0.265165 -1.14905,0 -1.14905,0 z"
           style="fill:#aa4400;fill-opacity:1;stroke:#000000;stroke-width:1px;stroke-linecap:butt;stroke-linejoin:miter;stroke-opacity:1" />
        <path
           inkscape:connector-curvature="0"
           id="path3966"
           d="m 96.462709,73.896159 c 3.984351,-2.207011 7.570321,-1.255156 8.737981,-0.228812 1.16767,1.026344 16.16469,14.347555 14.88647,20.075003 -1.27822,5.727448 -19.10285,4.541834 -22.937832,4.095189 -3.834982,-0.446646 -0.686619,-23.94138 -0.686619,-23.94138 z"
           style="fill:#ffffff;stroke:#000000;stroke-width:1px;stroke-linecap:butt;stroke-linejoin:miter;stroke-opacity:1" />
        <path
           sodipodi:nodetypes="cc"
           inkscape:connector-curvature="0"
           id="path3972"
           d="m 118,107.61218 c -3,10.5 -11,20 -11,20"
           style="fill:none;stroke:#000000;stroke-width:3;stroke-linecap:round;stroke-linejoin:round;stroke-opacity:1" />
        <path
           sodipodi:nodetypes="csssssssssssc"
           inkscape:connector-curvature="0"
           id="path4029"
           d="m 99.524475,72.223793 c -0.53033,-4.596194 -3.53553,-8.131728 2.386485,-8.396893 5.92202,-0.265165 5.21491,3.181981 5.65685,2.474874 0.44194,-0.707106 2.56326,-2.474873 5.21491,-2.386485 2.65165,0.08839 9.72272,1.679378 10.42983,3.535533 0.70711,1.856156 0.44194,5.656855 2.2981,5.745243 1.85615,0.08839 7.33623,4.065864 6.45235,5.391689 -0.88389,1.325826 -2.56327,4.86136 -2.12132,6.98268 0.44194,2.12132 -1.06066,3.889087 -2.74004,4.331029 -1.67938,0.441942 -4.68459,1.06066 -6.36396,1.149048 -1.67938,0.08839 -1.94455,-1.414213 -3.71231,-3.535533 -1.76777,-2.121321 -9.98789,-14.672466 -13.96536,-14.849243 -3.977475,-0.176777 -3.535535,-0.441942 -3.535535,-0.441942 z"
           style="fill:#aa4400;stroke:#000000;stroke-width:1px;stroke-linecap:butt;stroke-linejoin:miter;stroke-opacity:1" />
        <g
           transform="matrix(1.1604329,-0.31047471,0.31365238,1.1486763,-43.340524,18.33623)"
           id="g4056">
          <path
             sodipodi:type="arc"
             style="color:#000000;fill:#000000;fill-opacity:1;fill-rule:nonzero;stroke:none;stroke-width:70;marker:none;visibility:visible;display:inline;overflow:visible;enable-background:accumulate"
             id="path3968"
             sodipodi:cx="97.403961"
             sodipodi:cy="83.625893"
             sodipodi:rx="1.2374369"
             sodipodi:ry="1.2374369"
             d="m 98.641398,83.625893 c 0,0.683417 -0.554019,1.237437 -1.237437,1.237437 -0.683417,0 -1.237437,-0.55402 -1.237437,-1.237437 0,-0.683418 0.55402,-1.237437 1.237437,-1.237437 0.683418,0 1.237437,0.554019 1.237437,1.237437 z"
             transform="matrix(1.6148755,0,0,1.6148755,-57.009115,-52.180379)" />
          <path
             style="fill:none;stroke:#000000;stroke-width:0.41807088;stroke-linecap:butt;stroke-linejoin:miter;stroke-opacity:1"
             d="m 101.75563,81.898415 0.0625,-3.522209"
             id="path4046"
             inkscape:connector-curvature="0"
             sodipodi:nodetypes="cc" />
          <path
             style="fill:none;stroke:#000000;stroke-width:0.41807088;stroke-linecap:butt;stroke-linejoin:miter;stroke-opacity:1"
             d="m 99.457533,82.075191 -0.70266,-2.674937"
             id="path4048"
             inkscape:connector-curvature="0"
             sodipodi:nodetypes="cc" />
          <path
             style="fill:none;stroke:#000000;stroke-width:0.41807088;stroke-linecap:butt;stroke-linejoin:miter;stroke-opacity:1"
             d="M 98.57365,81.898415 98.13171,81.014532"
             id="path4050"
             inkscape:connector-curvature="0" />
          <path
             sodipodi:nodetypes="cc"
             inkscape:connector-curvature="0"
             id="path4052"
             d="M 100.34142,81.810026 99.638756,78.869924"
             style="fill:none;stroke:#000000;stroke-width:0.41807088;stroke-linecap:butt;stroke-linejoin:miter;stroke-opacity:1" />
          <path
             style="fill:none;stroke:#000000;stroke-width:0.41807088;stroke-linecap:butt;stroke-linejoin:miter;stroke-opacity:1"
             d="M 101.13692,81.633249 100.7878,78.781535"
             id="path4054"
             inkscape:connector-curvature="0"
             sodipodi:nodetypes="cc" />
        </g>
        <use
           height="1052.3622"
           width="744.09448"
           transform="matrix(-1,0,0,1,205.97207,0)"
           id="use4064"
           xlink:href="#g4056"
           y="0"
           x="0" />
        <path
           transform="translate(-330.75,0)"
           inkscape:connector-curvature="0"
           id="path4066"
           d="m 435.375,93.612181 c 2.125,0 3.25,-1.875 3.25,-1.875"
           style="fill:none;stroke:#000000;stroke-width:1px;stroke-linecap:butt;stroke-linejoin:miter;stroke-opacity:1" />
      </g>
    </g>
    <g
       transform="translate(466.75,0)"
       id="g4110">
      <g
         id="g4112">
        <path
           style="fill:#ffffff;stroke:#000000;stroke-width:1px;stroke-linecap:butt;stroke-linejoin:miter;stroke-opacity:1"
           d="m 426.297,99.535793 c -1.65489,-8.461432 -1.68119,-17.181756 -0.63558,-25.720594 3.21843,-7.094168 12.33095,-2.69327 17.50889,-0.559027 5.49341,4.292059 6.82129,11.715351 9.73883,17.714578 3.66699,8.167321 -7.04899,11.05943 -13.12088,10.93425 -4.47884,-0.21264 -9.76656,0.73388 -13.49126,-2.369207 z"
           id="path4114"
           inkscape:connector-curvature="0"
           transform="translate(-330.75,0)" />
        <path
           sodipodi:type="inkscape:offset"
           inkscape:radius="0.26630011"
           inkscape:original="M 432.65625 63.8125 C 429.32512 63.961655 428.83621 65.174595 429.125 67 C 427.78914 66.234801 426.90165 68.884855 424.25 70.625 C 421.42157 72.481155 423.3678 74.083947 422.21875 74.4375 C 421.0697 74.791053 420.55086 77.175095 419.84375 79.03125 C 419.13665 80.887405 422.48299 82.56786 421.6875 82.65625 C 420.892 82.74464 420.46783 85.647524 419.9375 89.625 C 419.40717 93.602476 420.55209 92.364277 426.5625 92.1875 C 426.5625 92.1875 425.68581 92.452665 427.71875 92.1875 C 429.75167 91.922335 427.625 88.148129 427.625 86.46875 C 427.625 84.789372 428.32138 82.397208 427.4375 80.1875 C 426.55362 77.977791 427.96967 77.709709 428.5 75.5 C 429.03033 73.290293 428.69026 73.806219 430.28125 73.1875 C 431.05249 72.887573 431.39072 72.722894 431.53125 72.53125 C 432.05498 72.58389 432.75922 72.60944 433.8125 72.65625 C 437.78997 72.833027 446.01348 85.378679 447.78125 87.5 C 449.54901 89.62132 449.82062 91.15089 451.5 91.0625 C 453.17937 90.97411 456.16437 90.348192 457.84375 89.90625 C 459.52313 89.464308 461.03569 87.68382 460.59375 85.5625 C 460.1518 83.44118 461.83486 79.919576 462.71875 78.59375 C 463.60263 77.267925 458.10615 73.27589 456.25 73.1875 C 454.39384 73.09911 454.67586 69.293656 453.96875 67.4375 C 453.26164 65.581345 446.1829 63.99464 443.53125 63.90625 C 440.8796 63.81786 438.75444 65.605394 438.3125 66.3125 C 437.87056 67.019607 438.57827 63.547335 432.65625 63.8125 z "
           style="fill:none;stroke:#000000;stroke-width:2;stroke-linecap:butt;stroke-linejoin:miter;stroke-opacity:1"
           id="path4116"
           d="m 432.65625,63.53125 c -1.69721,0.07599 -2.73357,0.428812 -3.3125,1.0625 -0.49608,0.543008 -0.57439,1.275194 -0.5,2.0625 -0.28022,-0.04819 -0.56453,-0.03959 -0.8125,0.09375 -0.36774,0.197737 -0.66598,0.539742 -1.03125,0.9375 -0.73054,0.795516 -1.62087,1.875222 -2.90625,2.71875 -1.46703,0.96274 -1.73852,1.956326 -1.75,2.6875 -0.006,0.365587 0.0174,0.673438 0,0.84375 -0.009,0.08516 -0.008,0.125716 -0.0312,0.15625 -0.0234,0.03053 -0.081,0.06098 -0.1875,0.09375 -0.72456,0.222941 -1.12941,0.981418 -1.5,1.875 -0.37059,0.893582 -0.68348,1.962118 -1.03125,2.875 -0.20641,0.541828 -0.0979,1.0676 0.125,1.53125 0.22286,0.46365 0.54081,0.877131 0.875,1.21875 0.33419,0.341619 0.67116,0.632519 0.84375,0.8125 -0.0776,0.04342 -0.15825,0.05984 -0.21875,0.125 -0.11764,0.126697 -0.22508,0.31047 -0.3125,0.5 -0.17483,0.37906 -0.3308,0.873628 -0.46875,1.5 -0.27591,1.252744 -0.48473,2.979205 -0.75,4.96875 -0.134,1.005017 -0.18056,1.699523 -0.0312,2.21875 0.0747,0.259613 0.21331,0.469231 0.40625,0.625 0.19294,0.155769 0.41586,0.234951 0.6875,0.28125 1.03496,0.176397 2.73449,-0.111305 5.46875,-0.21875 0.0457,0.03108 0.0978,0.05651 0.125,0.0625 0.0356,0.0078 0.0608,-0.0018 0.0937,0 0.0659,0.0036 0.14242,0.0066 0.25,0 0.21516,-0.01313 0.55105,-0.05829 1.0625,-0.125 0.29724,-0.03877 0.53646,-0.136292 0.71875,-0.3125 0.18229,-0.176208 0.29267,-0.409818 0.34375,-0.65625 0.10215,-0.492864 0.0172,-1.048246 -0.125,-1.65625 -0.28443,-1.216008 -0.78125,-2.61647 -0.78125,-3.34375 0,-1.605761 0.70766,-4.058977 -0.21875,-6.375 -0.42235,-1.055876 -0.29169,-1.541798 0,-2.125 0.29169,-0.583202 0.78535,-1.251471 1.0625,-2.40625 0.26708,-1.112841 0.34527,-1.541282 0.4375,-1.65625 0.0461,-0.05748 0.12524,-0.08779 0.3125,-0.15625 0.18726,-0.06846 0.46859,-0.15445 0.875,-0.3125 0.67629,-0.263002 1.02164,-0.427075 1.25,-0.65625 0.52725,0.04843 1.19181,0.111999 2.1875,0.15625 0.85885,0.03817 2.09696,0.78162 3.4375,2 1.34054,1.21838 2.7739,2.887666 4.15625,4.59375 2.76471,3.412167 5.23709,7.02201 6.15625,8.125 0.86802,1.041631 1.38556,1.960553 1.90625,2.625 0.52069,0.664447 1.11029,1.110972 2.03125,1.0625 1.72872,-0.09099 4.71161,-0.741542 6.40625,-1.1875 1.81156,-0.476726 3.41025,-2.387033 2.9375,-4.65625 -0.20121,-0.965776 0.0947,-2.3364 0.5625,-3.625 0.46777,-1.2886 1.10639,-2.487722 1.53125,-3.125 0.16292,-0.244384 0.17704,-0.559955 0.0937,-0.84375 -0.0833,-0.283795 -0.24696,-0.57818 -0.46875,-0.875 -0.44359,-0.59364 -1.11494,-1.215501 -1.875,-1.8125 -0.76006,-0.596999 -1.62722,-1.146274 -2.40625,-1.5625 -0.77903,-0.416226 -1.47832,-0.723669 -2.03125,-0.75 -0.37303,-0.01776 -0.59628,-0.180736 -0.8125,-0.53125 -0.21622,-0.350514 -0.37782,-0.884766 -0.5,-1.46875 -0.24437,-1.167968 -0.33945,-2.56684 -0.71875,-3.5625 -0.2249,-0.590372 -0.85911,-1.045384 -1.6875,-1.46875 -0.82839,-0.423366 -1.86352,-0.802069 -2.96875,-1.125 -2.21047,-0.645862 -4.66028,-1.0793 -6.03125,-1.125 -1.38793,-0.04626 -2.61194,0.425929 -3.5625,0.96875 -0.83667,0.477785 -1.40162,0.959704 -1.71875,1.375 -0.093,-0.228711 -0.2115,-0.558069 -0.5,-0.90625 -0.67608,-0.815939 -2.08132,-1.666135 -5.09375,-1.53125 z"
           transform="translate(-330.75,0)" />
        <path
           style="color:#000000;fill:none;stroke:#000000;stroke-width:3;stroke-linecap:round;stroke-linejoin:round;stroke-miterlimit:4;stroke-opacity:1;stroke-dasharray:none;stroke-dashoffset:0;marker:none;visibility:visible;display:inline;overflow:visible;enable-background:accumulate"
           d="m 102.5,130.61218 c -0.25,7.25 -0.25,17.25 -0.25,17.25"
           id="path4118"
           inkscape:connector-curvature="0" />
        <path
           style="color:#000000;fill:none;stroke:#000000;stroke-width:3;stroke-linecap:round;stroke-linejoin:round;stroke-miterlimit:4;stroke-opacity:1;stroke-dasharray:none;stroke-dashoffset:0;marker:none;visibility:visible;display:inline;overflow:visible;enable-background:accumulate"
           d="m 115.75,130.86218 c 0,15 -0.25,17.5 -0.25,17.5"
           id="path4120"
           inkscape:connector-curvature="0" />
        <path
           style="color:#000000;fill:#cccccc;fill-opacity:1;fill-rule:nonzero;stroke:#000000;stroke-width:2;stroke-linecap:butt;stroke-linejoin:miter;stroke-miterlimit:4;stroke-opacity:1;stroke-dasharray:none;stroke-dashoffset:0;marker:none;visibility:visible;display:inline;overflow:visible;enable-background:accumulate"
           d="m 94.617733,141.14113 31.513087,0.125 c 5.80047,0.023 -2.23593,-24.33812 -1.85539,-28.5297 l 2.01465,-22.191127 c 0.14135,-1.556911 -2.67573,-5.32842 -4.19404,-5.32842 l -22.820869,0 c -1.518301,0 3.945929,12.785784 -1.285169,16.328417 -2.86131,1.93776 -13.588545,7.37792 -1.45545,17.81688 l -4.657438,18.95052 c -0.376804,1.53317 1.222334,2.82241 2.740619,2.82843 z"
           id="path4122"
           inkscape:connector-curvature="0"
           sodipodi:nodetypes="ssssssscss" />
        <path
           style="fill:#ffffff;stroke:#000000;stroke-width:2;stroke-linecap:butt;stroke-linejoin:miter;stroke-opacity:1"
           d="m 111.83104,102.1978 c 13.17982,-1.44001 16.6767,-2.800122 18.39708,-4.143976 1.72037,-1.343853 1.40322,-8.085788 -0.83373,-8.444687 -4.61553,-0.740516 -28.71946,1.626298 -31.864888,2.948021 -1.82209,0.765652 -5.979244,3.053969 -5.864044,4.108355 0.115201,1.054385 0.186144,4.958857 2.068237,5.909117 1.882113,0.95025 18.097355,-0.37683 18.097365,-0.37683 z"
           id="path4124"
           inkscape:connector-curvature="0"
           sodipodi:nodetypes="csssssc" />
        <path
           style="fill:#6c5d53;fill-opacity:1;stroke:#000000;stroke-width:1px;stroke-linecap:butt;stroke-linejoin:miter;stroke-opacity:1"
           d="m 95.81217,92.19956 c -6.01041,0.176777 -7.15946,1.414214 -6.62913,-2.563262 0.53033,-3.977476 0.97227,-6.894291 1.76777,-6.98268 0.79549,-0.08839 -2.56326,-1.767767 -1.85616,-3.623922 0.70711,-1.856155 1.23744,-4.242641 2.38649,-4.596194 1.14905,-0.353553 -0.7955,-1.944544 2.03293,-3.800699 2.82843,-1.856155 3.62392,-4.772971 5.12652,-3.447145 1.50261,1.325825 2.20971,3.71231 2.20971,4.507805 0,0.795495 0.26517,0.883884 -1.32582,1.502602 -1.59099,0.618719 -1.23744,0.08839 -1.76777,2.298097 -0.53033,2.209709 -1.94454,2.474874 -1.06066,4.684583 0.88388,2.209708 0.17678,4.596194 0.17678,6.275572 0,1.679379 2.12132,5.480078 0.0884,5.745243 -2.03294,0.265165 -1.14905,0 -1.14905,0 z"
           id="path4126"
           inkscape:connector-curvature="0" />
        <path
           style="fill:#ffffff;stroke:#000000;stroke-width:1px;stroke-linecap:butt;stroke-linejoin:miter;stroke-opacity:1"
           d="m 96.462709,73.896159 c 3.984351,-2.207011 7.570321,-1.255156 8.737981,-0.228812 1.16767,1.026344 16.16469,14.347555 14.88647,20.075003 -1.27822,5.727448 -19.10285,4.541834 -22.937832,4.095189 -3.834982,-0.446646 -0.686619,-23.94138 -0.686619,-23.94138 z"
           id="path4128"
           inkscape:connector-curvature="0" />
        <path
           style="fill:none;stroke:#000000;stroke-width:3;stroke-linecap:round;stroke-linejoin:round;stroke-opacity:1"
           d="m 118,107.61218 c -3,10.5 -11,20 -11,20"
           id="path4130"
           inkscape:connector-curvature="0"
           sodipodi:nodetypes="cc" />
        <path
           style="fill:#6c5d53;stroke:#000000;stroke-width:1px;stroke-linecap:butt;stroke-linejoin:miter;stroke-opacity:1"
           d="m 99.524475,72.223793 c -0.53033,-4.596194 -3.53553,-8.131728 2.386485,-8.396893 5.92202,-0.265165 5.21491,3.181981 5.65685,2.474874 0.44194,-0.707106 2.56326,-2.474873 5.21491,-2.386485 2.65165,0.08839 9.72272,1.679378 10.42983,3.535533 0.70711,1.856156 0.44194,5.656855 2.2981,5.745243 1.85615,0.08839 7.33623,4.065864 6.45235,5.391689 -0.88389,1.325826 -2.56327,4.86136 -2.12132,6.98268 0.44194,2.12132 -1.06066,3.889087 -2.74004,4.331029 -1.67938,0.441942 -4.68459,1.06066 -6.36396,1.149048 -1.67938,0.08839 -1.94455,-1.414213 -3.71231,-3.535533 -1.76777,-2.121321 -9.98789,-14.672466 -13.96536,-14.849243 -3.977475,-0.176777 -3.535535,-0.441942 -3.535535,-0.441942 z"
           id="path4132"
           inkscape:connector-curvature="0"
           sodipodi:nodetypes="csssssssssssc" />
        <g
           id="g4134"
           transform="matrix(1.1604329,-0.31047471,0.31365238,1.1486763,-43.340524,18.33623)">
          <path
             transform="matrix(1.6148755,0,0,1.6148755,-57.009115,-52.180379)"
             d="m 98.641398,83.625893 a 1.2374369,1.2374369 0 1 1 -2.474874,0 1.2374369,1.2374369 0 1 1 2.474874,0 z"
             sodipodi:ry="1.2374369"
             sodipodi:rx="1.2374369"
             sodipodi:cy="83.625893"
             sodipodi:cx="97.403961"
             id="path4136"
             style="color:#000000;fill:#000000;fill-opacity:1;fill-rule:nonzero;stroke:none;stroke-width:70;marker:none;visibility:visible;display:inline;overflow:visible;enable-background:accumulate"
             sodipodi:type="arc" />
          <path
             sodipodi:nodetypes="cc"
             inkscape:connector-curvature="0"
             id="path4138"
             d="m 101.75563,81.898415 0.0625,-3.522209"
             style="fill:none;stroke:#000000;stroke-width:0.41807088;stroke-linecap:butt;stroke-linejoin:miter;stroke-opacity:1" />
          <path
             sodipodi:nodetypes="cc"
             inkscape:connector-curvature="0"
             id="path4140"
             d="m 99.457533,82.075191 -0.70266,-2.674937"
             style="fill:none;stroke:#000000;stroke-width:0.41807088;stroke-linecap:butt;stroke-linejoin:miter;stroke-opacity:1" />
          <path
             inkscape:connector-curvature="0"
             id="path4142"
             d="M 98.57365,81.898415 98.13171,81.014532"
             style="fill:none;stroke:#000000;stroke-width:0.41807088;stroke-linecap:butt;stroke-linejoin:miter;stroke-opacity:1" />
          <path
             style="fill:none;stroke:#000000;stroke-width:0.41807088;stroke-linecap:butt;stroke-linejoin:miter;stroke-opacity:1"
             d="M 100.34142,81.810026 99.638756,78.869924"
             id="path4144"
             inkscape:connector-curvature="0"
             sodipodi:nodetypes="cc" />
          <path
             sodipodi:nodetypes="cc"
             inkscape:connector-curvature="0"
             id="path4146"
             d="M 101.13692,81.633249 100.7878,78.781535"
             style="fill:none;stroke:#000000;stroke-width:0.41807088;stroke-linecap:butt;stroke-linejoin:miter;stroke-opacity:1" />
        </g>
        <use
           x="0"
           y="0"
           xlink:href="#g4056"
           id="use4148"
           transform="matrix(-1,0,0,1,205.97207,0)"
           width="744.09448"
           height="1052.3622" />
        <path
           style="fill:none;stroke:#000000;stroke-width:1px;stroke-linecap:butt;stroke-linejoin:miter;stroke-opacity:1"
           d="m 101.35463,91.560404 c 2.125,0 3.25,1.875 3.25,1.875"
           id="path4150"
           inkscape:connector-curvature="0" />
      </g>
    </g>
    <path
       style="fill:#aa8800;stroke:#000000;stroke-width:2;stroke-linecap:butt;stroke-linejoin:miter;stroke-opacity:1"
       d="m 564.69859,66.935103 c -0.28822,-2.44848 -0.33589,-6.648284 -1.01046,-8.882176 -0.67456,-2.233891 -2.47018,-6.049255 -1.24088,-5.255879 1.2293,0.793377 0.68131,3.483874 4.70598,3.41215 4.02468,-0.07172 4.95416,-6.18933 5.95495,-3.732195 1.00077,2.457133 5.00095,7.110612 11.18588,4.302189 6.18493,-2.808423 4.45766,-3.224106 5.59603,-3.067748 1.13835,0.156357 -3.51175,4.781524 -3.68205,7.969989 -0.17029,3.188466 0.28632,4.411019 0.28632,4.411019 0,0 -5.47913,1.567095 -8.3053,1.357347 -2.82617,-0.20975 -13.49047,-0.514696 -13.49047,-0.514696 z"
       id="path4152"
       inkscape:connector-curvature="0"
       sodipodi:nodetypes="cssssssscsc" />
    <g
       id="g4156"
       transform="matrix(0.95461818,-0.29783238,0.29783238,0.95461818,145.61507,218.28776)">
      <g
         id="g4196">
        <path
           style="fill:#550000;fill-opacity:1;stroke:#000000;stroke-width:1px;stroke-linecap:butt;stroke-linejoin:miter;stroke-opacity:1"
           d="m 125.33627,109.38786 c 0,0 2.62262,-12.142996 5.44489,-16.281027 2.82234,-4.138013 6.91595,2.95609 6.91595,2.95609 l 6.99958,18.596177 c 0,0 -0.3709,1.20965 -2.36402,0.75917 -1.99311,-0.45047 -5.3624,-4.99291 -5.3624,-4.99291 0,0 0.44205,8.25876 -1.78209,7.05957 -2.22414,-1.19917 -3.7227,-8.30374 -3.7227,-8.30374 l -6.35275,1.64862 z"
           id="path4188"
           inkscape:connector-curvature="0" />
        <g
           transform="matrix(0.97859004,-0.20581918,0.20581918,0.97859004,-17.10724,28.777281)"
           id="g4190">
          <path
             style="color:#000000;fill:none;stroke:#000000;stroke-width:3;stroke-linecap:round;stroke-linejoin:round;stroke-miterlimit:4;stroke-opacity:1;stroke-dasharray:none;stroke-dashoffset:0;marker:none;visibility:visible;display:inline;overflow:visible;enable-background:accumulate"
             d="m 102.5,130.61218 c -0.125,3.625 0.66943,8.15856 1.49512,11.78587 0.82568,3.62731 6.98688,5.96627 6.98688,5.96627"
             id="path4158"
             inkscape:connector-curvature="0"
             sodipodi:nodetypes="csc" />
          <path
             style="color:#000000;fill:none;stroke:#000000;stroke-width:3;stroke-linecap:round;stroke-linejoin:round;stroke-miterlimit:4;stroke-opacity:1;stroke-dasharray:none;stroke-dashoffset:0;marker:none;visibility:visible;display:inline;overflow:visible;enable-background:accumulate"
             d="m 115.75,130.86218 c -0.31865,2.58589 0.22536,7.2427 0.84902,11.25305 0.62367,4.01034 6.82025,5.19926 6.82025,5.19926"
             id="path4160"
             inkscape:connector-curvature="0"
             sodipodi:nodetypes="csc" />
          <path
             style="color:#000000;fill:#550000;fill-opacity:1;fill-rule:nonzero;stroke:#000000;stroke-width:2;stroke-linecap:butt;stroke-linejoin:miter;stroke-miterlimit:4;stroke-opacity:1;stroke-dasharray:none;stroke-dashoffset:0;marker:none;visibility:visible;display:inline;overflow:visible;enable-background:accumulate"
             d="m 100.71482,134.89113 17.06474,0 c 4.98173,0 10.84903,-8.73845 10.29767,-12.9047 l -4.16089,-31.441127 c -0.2048,-1.5475 -2.29803,-5.32842 -3.60202,-5.32842 l -19.5995,0 c -1.30398,0 -2.353757,1.26147 -2.353757,2.82842 l 0,44.017397 c 0,1.56695 1.049777,2.82843 2.353757,2.82843 z"
             id="path4162"
             inkscape:connector-curvature="0"
             sodipodi:nodetypes="sssssssss" />
          <path
             style="fill:none;stroke:#000000;stroke-width:3;stroke-linecap:round;stroke-linejoin:round;stroke-opacity:1"
             d="m 115.93229,106.13061 c -6.93695,8.43378 -18.060827,13.9573 -18.060827,13.9573"
             id="path4172"
             inkscape:connector-curvature="0"
             sodipodi:nodetypes="cc" />
        </g>
        <g
           transform="matrix(0.95807273,0.28652511,-0.28652511,0.95807273,30.65386,-29.840958)"
           id="g4174">
          <path
             style="fill:#550000;stroke:#000000;stroke-width:2;stroke-linecap:butt;stroke-linejoin:miter;stroke-opacity:1"
             d="m 96.474874,70.594416 c 4.885956,-2.585877 10.825056,-1.390613 15.468946,1.116435 5.78721,3.124283 11.28661,7.275099 14.80024,12.826882 2.52066,3.982819 3.71033,8.716697 3.8355,13.649851 0.054,2.126666 -1.23314,3.126126 -2.9785,3.213336 -9.8021,0.4898 -19.61036,0.65026 -29.425246,0.59887 -1.802031,-0.009 -4.646681,-0.12848 -4.737866,-2.303863 -0.128714,-3.07069 -0.135796,-6.171829 -0.125254,-9.260583 0.01897,-5.557872 -0.08603,-11.128004 0.268228,-16.672404 0.09774,-1.529712 1.623368,-2.496072 2.893952,-3.168524 z"
             id="path4164"
             inkscape:connector-curvature="0"
             sodipodi:nodetypes="ssssssssss" />
          <path
             style="fill:#ffffff;stroke:#000000;stroke-width:1px;stroke-linecap:butt;stroke-linejoin:miter;stroke-opacity:1"
             d="m 97.387533,73.896159 c 3.828887,-2.207011 7.274937,-1.255156 8.397027,-0.228812 1.12211,1.026344 15.53396,14.347555 14.30562,20.075003 -1.22835,5.727448 -18.35748,4.541834 -22.042819,4.095189 -3.685344,-0.446646 -0.659828,-23.94138 -0.659828,-23.94138 z"
             id="path4166"
             inkscape:connector-curvature="0" />
          <path
             sodipodi:type="arc"
             style="color:#000000;fill:#000000;fill-opacity:1;fill-rule:nonzero;stroke:none;stroke-width:70;marker:none;visibility:visible;display:inline;overflow:visible;enable-background:accumulate"
             id="path4168"
             sodipodi:cx="97.403961"
             sodipodi:cy="83.625893"
             sodipodi:rx="1.2374369"
             sodipodi:ry="1.2374369"
             d="m 98.641398,83.625893 c 0,0.683417 -0.554019,1.237437 -1.237437,1.237437 -0.683417,0 -1.237437,-0.55402 -1.237437,-1.237437 0,-0.683418 0.55402,-1.237437 1.237437,-1.237437 0.683418,0 1.237437,0.554019 1.237437,1.237437 z"
             transform="matrix(1.6148755,0,0,1.6148755,-57.009115,-52.180379)" />
          <path
             transform="matrix(1.6148755,0,0,1.6148755,-50.874,-52.180379)"
             d="m 98.641398,83.625893 c 0,0.683417 -0.554019,1.237437 -1.237437,1.237437 -0.683417,0 -1.237437,-0.55402 -1.237437,-1.237437 0,-0.683418 0.55402,-1.237437 1.237437,-1.237437 0.683418,0 1.237437,0.554019 1.237437,1.237437 z"
             sodipodi:ry="1.2374369"
             sodipodi:rx="1.2374369"
             sodipodi:cy="83.625893"
             sodipodi:cx="97.403961"
             id="path4170"
             style="color:#000000;fill:#000000;fill-opacity:1;fill-rule:nonzero;stroke:none;stroke-width:70;marker:none;visibility:visible;display:inline;overflow:visible;enable-background:accumulate"
             sodipodi:type="arc" />
        </g>
        <path
           inkscape:connector-curvature="0"
           id="path4180"
           d="m 103.94018,86.300536 c -0.002,0.55463 -0.7533,1.72991 -0.59011,2.16527 0.16318,0.43535 1.37055,2.17895 2.79123,2.28047 1.42067,0.1015 3.49748,-1.21549 5.38777,-0.83931 1.89029,0.37617 2.5066,2.23438 2.55051,2.50437 0.0439,0.27 0.45248,0.0557 0.45248,0.0557 0,0 0.30734,-3.44954 -2.66823,-4.59147 -2.97558,-1.14194 -3.97739,-0.25844 -4.897,-0.45992 -0.91961,-0.20148 -1.81307,-1.719 -2.37985,-1.68224 -0.56677,0.0367 -0.6468,0.56709 -0.6468,0.56709 z"
           style="fill:#000000;stroke:none" />
        <path
           style="fill:#000000;stroke:none"
           d="m 103.16577,86.058927 c -0.31374,0.457368 -0.36402,1.85136 -0.74582,2.116688 -0.38178,0.265326 -2.36643,1.013048 -3.592788,0.288713 -1.22635,-0.724347 -2.185839,-2.988634 -3.95468,-3.75407 -1.76884,-0.765447 -3.33245,0.412647 -3.5221,0.609771 -0.189642,0.197136 -0.403873,-0.211472 -0.403873,-0.211472 0,0 1.7087,-3.012327 4.80572,-2.259664 3.09703,0.752661 3.41872,2.049083 4.289761,2.406267 0.87103,0.357183 2.46888,-0.383065 2.91421,-0.03054 0.44535,0.352472 0.20958,0.834275 0.20958,0.834275 z"
           id="path4182"
           inkscape:connector-curvature="0" />
        <path
           sodipodi:nodetypes="cccc"
           inkscape:connector-curvature="0"
           id="path4184"
           d="M 98.216618,91.624212 C 97.305633,94.114465 97.31805,103.34246 97.31805,103.34246 l 6.49858,-10.04611 c -2.06796,-2.331983 -3.887103,-2.470379 -5.600012,-1.672138 z"
           style="fill:#000000;stroke:none" />
      </g>
      <g
         id="g4212"
         transform="translate(175.88646,50.684853)">
        <path
           inkscape:connector-curvature="0"
           id="path4214"
           d="m 125.33627,109.38786 c 0,0 2.62262,-12.142996 5.44489,-16.281027 2.82234,-4.138013 6.91595,2.95609 6.91595,2.95609 l 6.99958,18.596177 c 0,0 -0.3709,1.20965 -2.36402,0.75917 -1.99311,-0.45047 -5.3624,-4.99291 -5.3624,-4.99291 0,0 0.44205,8.25876 -1.78209,7.05957 -2.22414,-1.19917 -3.7227,-8.30374 -3.7227,-8.30374 l -6.35275,1.64862 z"
           style="fill:#550000;fill-opacity:1;stroke:#000000;stroke-width:1px;stroke-linecap:butt;stroke-linejoin:miter;stroke-opacity:1" />
        <g
           id="g4216"
           transform="matrix(0.97859004,-0.20581918,0.20581918,0.97859004,-17.10724,28.777281)">
          <path
             sodipodi:nodetypes="csc"
             inkscape:connector-curvature="0"
             id="path4218"
             d="m 102.5,130.61218 c -0.125,3.625 0.66943,8.15856 1.49512,11.78587 0.82568,3.62731 6.98688,5.96627 6.98688,5.96627"
             style="color:#000000;fill:none;stroke:#000000;stroke-width:3;stroke-linecap:round;stroke-linejoin:round;stroke-miterlimit:4;stroke-opacity:1;stroke-dasharray:none;stroke-dashoffset:0;marker:none;visibility:visible;display:inline;overflow:visible;enable-background:accumulate" />
          <path
             sodipodi:nodetypes="csc"
             inkscape:connector-curvature="0"
             id="path4220"
             d="m 115.75,130.86218 c -0.31865,2.58589 0.22536,7.2427 0.84902,11.25305 0.62367,4.01034 6.82025,5.19926 6.82025,5.19926"
             style="color:#000000;fill:none;stroke:#000000;stroke-width:3;stroke-linecap:round;stroke-linejoin:round;stroke-miterlimit:4;stroke-opacity:1;stroke-dasharray:none;stroke-dashoffset:0;marker:none;visibility:visible;display:inline;overflow:visible;enable-background:accumulate" />
          <path
             sodipodi:nodetypes="sssssssss"
             inkscape:connector-curvature="0"
             id="path4222"
             d="m 100.71482,134.89113 17.06474,0 c 4.98173,0 10.84903,-8.73845 10.29767,-12.9047 l -4.16089,-31.441127 c -0.2048,-1.5475 -2.29803,-5.32842 -3.60202,-5.32842 l -19.5995,0 c -1.30398,0 -2.353757,1.26147 -2.353757,2.82842 l 0,44.017397 c 0,1.56695 1.049777,2.82843 2.353757,2.82843 z"
             style="color:#000000;fill:#550000;fill-opacity:1;fill-rule:nonzero;stroke:#000000;stroke-width:2;stroke-linecap:butt;stroke-linejoin:miter;stroke-miterlimit:4;stroke-opacity:1;stroke-dasharray:none;stroke-dashoffset:0;marker:none;visibility:visible;display:inline;overflow:visible;enable-background:accumulate" />
          <path
             sodipodi:nodetypes="cc"
             inkscape:connector-curvature="0"
             id="path4224"
             d="m 115.93229,106.13061 c -6.93695,8.43378 -18.060827,13.9573 -18.060827,13.9573"
             style="fill:none;stroke:#000000;stroke-width:3;stroke-linecap:round;stroke-linejoin:round;stroke-opacity:1" />
        </g>
        <g
           id="g4226"
           transform="matrix(0.95807273,0.28652511,-0.28652511,0.95807273,30.65386,-29.840958)">
          <path
             sodipodi:nodetypes="ssssssssss"
             inkscape:connector-curvature="0"
             id="path4228"
             d="m 96.474874,70.594416 c 4.885956,-2.585877 10.825056,-1.390613 15.468946,1.116435 5.78721,3.124283 11.28661,7.275099 14.80024,12.826882 2.52066,3.982819 3.71033,8.716697 3.8355,13.649851 0.054,2.126666 -1.23314,3.126126 -2.9785,3.213336 -9.8021,0.4898 -19.61036,0.65026 -29.425246,0.59887 -1.802031,-0.009 -4.646681,-0.12848 -4.737866,-2.303863 -0.128714,-3.07069 -0.135796,-6.171829 -0.125254,-9.260583 0.01897,-5.557872 -0.08603,-11.128004 0.268228,-16.672404 0.09774,-1.529712 1.623368,-2.496072 2.893952,-3.168524 z"
             style="fill:#550000;stroke:#000000;stroke-width:2;stroke-linecap:butt;stroke-linejoin:miter;stroke-opacity:1" />
          <path
             inkscape:connector-curvature="0"
             id="path4230"
             d="m 97.387533,73.896159 c 3.828887,-2.207011 7.274937,-1.255156 8.397027,-0.228812 1.12211,1.026344 15.53396,14.347555 14.30562,20.075003 -1.22835,5.727448 -18.35748,4.541834 -22.042819,4.095189 -3.685344,-0.446646 -0.659828,-23.94138 -0.659828,-23.94138 z"
             style="fill:#ffffff;stroke:#000000;stroke-width:1px;stroke-linecap:butt;stroke-linejoin:miter;stroke-opacity:1" />
          <path
             transform="matrix(1.6148755,0,0,1.6148755,-57.009115,-52.180379)"
             d="m 98.641398,83.625893 c 0,0.683417 -0.554019,1.237437 -1.237437,1.237437 -0.683417,0 -1.237437,-0.55402 -1.237437,-1.237437 0,-0.683418 0.55402,-1.237437 1.237437,-1.237437 0.683418,0 1.237437,0.554019 1.237437,1.237437 z"
             sodipodi:ry="1.2374369"
             sodipodi:rx="1.2374369"
             sodipodi:cy="83.625893"
             sodipodi:cx="97.403961"
             id="path4232"
             style="color:#000000;fill:#000000;fill-opacity:1;fill-rule:nonzero;stroke:none;stroke-width:70;marker:none;visibility:visible;display:inline;overflow:visible;enable-background:accumulate"
             sodipodi:type="arc" />
          <path
             sodipodi:type="arc"
             style="color:#000000;fill:#000000;fill-opacity:1;fill-rule:nonzero;stroke:none;stroke-width:70;marker:none;visibility:visible;display:inline;overflow:visible;enable-background:accumulate"
             id="path4234"
             sodipodi:cx="97.403961"
             sodipodi:cy="83.625893"
             sodipodi:rx="1.2374369"
             sodipodi:ry="1.2374369"
             d="m 98.641398,83.625893 c 0,0.683417 -0.554019,1.237437 -1.237437,1.237437 -0.683417,0 -1.237437,-0.55402 -1.237437,-1.237437 0,-0.683418 0.55402,-1.237437 1.237437,-1.237437 0.683418,0 1.237437,0.554019 1.237437,1.237437 z"
             transform="matrix(1.6148755,0,0,1.6148755,-50.874,-52.180379)" />
        </g>
        <path
           style="fill:#000000;stroke:none"
           d="m 103.94018,86.300536 c -0.002,0.55463 -0.7533,1.72991 -0.59011,2.16527 0.16318,0.43535 1.37055,2.17895 2.79123,2.28047 1.42067,0.1015 3.49748,-1.21549 5.38777,-0.83931 1.89029,0.37617 2.5066,2.23438 2.55051,2.50437 0.0439,0.27 0.45248,0.0557 0.45248,0.0557 0,0 0.30734,-3.44954 -2.66823,-4.59147 -2.97558,-1.14194 -3.97739,-0.25844 -4.897,-0.45992 -0.91961,-0.20148 -1.81307,-1.719 -2.37985,-1.68224 -0.56677,0.0367 -0.6468,0.56709 -0.6468,0.56709 z"
           id="path4236"
           inkscape:connector-curvature="0" />
        <path
           inkscape:connector-curvature="0"
           id="path4238"
           d="m 103.16577,86.058927 c -0.31374,0.457368 -0.36402,1.85136 -0.74582,2.116688 -0.38178,0.265326 -2.36643,1.013048 -3.592788,0.288713 -1.22635,-0.724347 -2.185839,-2.988634 -3.95468,-3.75407 -1.76884,-0.765447 -3.33245,0.412647 -3.5221,0.609771 -0.189642,0.197136 -0.403873,-0.211472 -0.403873,-0.211472 0,0 1.7087,-3.012327 4.80572,-2.259664 3.09703,0.752661 3.41872,2.049083 4.289761,2.406267 0.87103,0.357183 2.46888,-0.383065 2.91421,-0.03054 0.44535,0.352472 0.20958,0.834275 0.20958,0.834275 z"
           style="fill:#000000;stroke:none" />
        <path
           style="fill:#000000;stroke:none"
           d="M 98.216618,91.624212 C 97.305633,94.114465 97.31805,103.34246 97.31805,103.34246 l 6.49858,-10.04611 c -2.06796,-2.331983 -3.887103,-2.470379 -5.600012,-1.672138 z"
           id="path4240"
           inkscape:connector-curvature="0"
           sodipodi:nodetypes="cccc" />
      </g>
      <g
         transform="matrix(0.82259175,0.56863241,0.56863241,-0.82259175,134.51917,183.27611)"
         id="g4242">
        <path
           style="fill:#550000;fill-opacity:1;stroke:#000000;stroke-width:1px;stroke-linecap:butt;stroke-linejoin:miter;stroke-opacity:1"
           d="m 125.33627,109.38786 c 0,0 2.62262,-12.142996 5.44489,-16.281027 2.82234,-4.138013 6.91595,2.95609 6.91595,2.95609 l 6.99958,18.596177 c 0,0 -0.3709,1.20965 -2.36402,0.75917 -1.99311,-0.45047 -5.3624,-4.99291 -5.3624,-4.99291 0,0 0.44205,8.25876 -1.78209,7.05957 -2.22414,-1.19917 -3.7227,-8.30374 -3.7227,-8.30374 l -6.35275,1.64862 z"
           id="path4244"
           inkscape:connector-curvature="0" />
        <g
           transform="matrix(0.97859004,-0.20581918,0.20581918,0.97859004,-17.10724,28.777281)"
           id="g4246">
          <path
             style="color:#000000;fill:none;stroke:#000000;stroke-width:3;stroke-linecap:round;stroke-linejoin:round;stroke-miterlimit:4;stroke-opacity:1;stroke-dasharray:none;stroke-dashoffset:0;marker:none;visibility:visible;display:inline;overflow:visible;enable-background:accumulate"
             d="m 102.5,130.61218 c -0.125,3.625 0.66943,8.15856 1.49512,11.78587 0.82568,3.62731 6.98688,5.96627 6.98688,5.96627"
             id="path4248"
             inkscape:connector-curvature="0"
             sodipodi:nodetypes="csc" />
          <path
             style="color:#000000;fill:none;stroke:#000000;stroke-width:3;stroke-linecap:round;stroke-linejoin:round;stroke-miterlimit:4;stroke-opacity:1;stroke-dasharray:none;stroke-dashoffset:0;marker:none;visibility:visible;display:inline;overflow:visible;enable-background:accumulate"
             d="m 115.75,130.86218 c -0.31865,2.58589 0.22536,7.2427 0.84902,11.25305 0.62367,4.01034 6.82025,5.19926 6.82025,5.19926"
             id="path4250"
             inkscape:connector-curvature="0"
             sodipodi:nodetypes="csc" />
          <path
             style="fill:none;stroke:#000000;stroke-width:3;stroke-linecap:round;stroke-linejoin:round;stroke-opacity:1"
             d="m 115.93229,106.13061 c -6.93695,8.43378 -18.060827,13.9573 -18.060827,13.9573"
             id="path4254"
             inkscape:connector-curvature="0"
             sodipodi:nodetypes="cc" />
        </g>
        <g
           transform="matrix(0.95807273,0.28652511,-0.28652511,0.95807273,30.65386,-29.840958)"
           id="g4256">
          <path
             style="fill:#550000;stroke:#000000;stroke-width:2;stroke-linecap:butt;stroke-linejoin:miter;stroke-opacity:1"
             d="m 96.474874,70.594416 c 4.885956,-2.585877 10.825056,-1.390613 15.468946,1.116435 5.78721,3.124283 11.28661,7.275099 14.80024,12.826882 2.52066,3.982819 3.71033,8.716697 3.8355,13.649851 0.054,2.126666 -1.23314,3.126126 -2.9785,3.213336 -9.8021,0.4898 -19.61036,0.65026 -29.425246,0.59887 -1.802031,-0.009 -4.646681,-0.12848 -4.737866,-2.303863 -0.128714,-3.07069 -0.135796,-6.171829 -0.125254,-9.260583 0.01897,-5.557872 -0.08603,-11.128004 0.268228,-16.672404 0.09774,-1.529712 1.623368,-2.496072 2.893952,-3.168524 z"
             id="path4258"
             inkscape:connector-curvature="0"
             sodipodi:nodetypes="ssssssssss" />
          <path
             style="fill:#ffffff;stroke:#000000;stroke-width:1px;stroke-linecap:butt;stroke-linejoin:miter;stroke-opacity:1"
             d="m 97.387533,73.896159 c 3.828887,-2.207011 7.274937,-1.255156 8.397027,-0.228812 1.12211,1.026344 15.53396,14.347555 14.30562,20.075003 -1.22835,5.727448 -18.35748,4.541834 -22.042819,4.095189 -3.685344,-0.446646 -0.659828,-23.94138 -0.659828,-23.94138 z"
             id="path4260"
             inkscape:connector-curvature="0" />
          <path
             sodipodi:type="arc"
             style="color:#000000;fill:#000000;fill-opacity:1;fill-rule:nonzero;stroke:none;stroke-width:70;marker:none;visibility:visible;display:inline;overflow:visible;enable-background:accumulate"
             id="path4262"
             sodipodi:cx="97.403961"
             sodipodi:cy="83.625893"
             sodipodi:rx="1.2374369"
             sodipodi:ry="1.2374369"
             d="m 98.641398,83.625893 c 0,0.683417 -0.554019,1.237437 -1.237437,1.237437 -0.683417,0 -1.237437,-0.55402 -1.237437,-1.237437 0,-0.683418 0.55402,-1.237437 1.237437,-1.237437 0.683418,0 1.237437,0.554019 1.237437,1.237437 z"
             transform="matrix(1.6148755,0,0,1.6148755,-57.009115,-52.180379)" />
          <path
             transform="matrix(1.6148755,0,0,1.6148755,-50.874,-52.180379)"
             d="m 98.641398,83.625893 c 0,0.683417 -0.554019,1.237437 -1.237437,1.237437 -0.683417,0 -1.237437,-0.55402 -1.237437,-1.237437 0,-0.683418 0.55402,-1.237437 1.237437,-1.237437 0.683418,0 1.237437,0.554019 1.237437,1.237437 z"
             sodipodi:ry="1.2374369"
             sodipodi:rx="1.2374369"
             sodipodi:cy="83.625893"
             sodipodi:cx="97.403961"
             id="path4264"
             style="color:#000000;fill:#000000;fill-opacity:1;fill-rule:nonzero;stroke:none;stroke-width:70;marker:none;visibility:visible;display:inline;overflow:visible;enable-background:accumulate"
             sodipodi:type="arc" />
        </g>
        <path
           inkscape:connector-curvature="0"
           id="path4266"
           d="m 103.94018,86.300536 c -0.002,0.55463 -0.7533,1.72991 -0.59011,2.16527 0.16318,0.43535 1.37055,2.17895 2.79123,2.28047 1.42067,0.1015 3.49748,-1.21549 5.38777,-0.83931 1.89029,0.37617 2.5066,2.23438 2.55051,2.50437 0.0439,0.27 0.45248,0.0557 0.45248,0.0557 0,0 0.30734,-3.44954 -2.66823,-4.59147 -2.97558,-1.14194 -3.97739,-0.25844 -4.897,-0.45992 -0.91961,-0.20148 -1.81307,-1.719 -2.37985,-1.68224 -0.56677,0.0367 -0.6468,0.56709 -0.6468,0.56709 z"
           style="fill:#000000;stroke:none" />
        <path
           style="fill:#000000;stroke:none"
           d="m 103.16577,86.058927 c -0.31374,0.457368 -0.36402,1.85136 -0.74582,2.116688 -0.38178,0.265326 -2.36643,1.013048 -3.592788,0.288713 -1.22635,-0.724347 -2.185839,-2.988634 -3.95468,-3.75407 -1.76884,-0.765447 -3.33245,0.412647 -3.5221,0.609771 -0.189642,0.197136 -0.403873,-0.211472 -0.403873,-0.211472 0,0 1.7087,-3.012327 4.80572,-2.259664 3.09703,0.752661 3.41872,2.049083 4.289761,2.406267 0.87103,0.357183 2.46888,-0.383065 2.91421,-0.03054 0.44535,0.352472 0.20958,0.834275 0.20958,0.834275 z"
           id="path4268"
           inkscape:connector-curvature="0" />
        <path
           sodipodi:nodetypes="cccc"
           inkscape:connector-curvature="0"
           id="path4270"
           d="M 98.216618,91.624212 C 97.305633,94.114465 97.31805,103.34246 97.31805,103.34246 l 6.49858,-10.04611 c -2.06796,-2.331983 -3.887103,-2.470379 -5.600012,-1.672138 z"
           style="fill:#000000;stroke:none" />
      </g>
    </g>
  </g>
</svg>
