<?xml version="1.0" encoding="UTF-8" standalone="no"?>
<!-- Created with Inkscape (http://www.inkscape.org/) -->

<svg
   xmlns:dc="http://purl.org/dc/elements/1.1/"
   xmlns:cc="http://creativecommons.org/ns#"
   xmlns:rdf="http://www.w3.org/1999/02/22-rdf-syntax-ns#"
   xmlns:svg="http://www.w3.org/2000/svg"
   xmlns="http://www.w3.org/2000/svg"
   xmlns:xlink="http://www.w3.org/1999/xlink"
   xmlns:sodipodi="http://sodipodi.sourceforge.net/DTD/sodipodi-0.dtd"
   xmlns:inkscape="http://www.inkscape.org/namespaces/inkscape"
   width="744.09448819"
   height="1052.3622047"
   id="svg8159"
   version="1.1"
   inkscape:version="0.48.4 r9939"
   sodipodi:docname="items.svg">
  <defs
     id="defs8161" />
  <sodipodi:namedview
     id="base"
     pagecolor="#ffffff"
     bordercolor="#666666"
     borderopacity="1.0"
     inkscape:pageopacity="0.0"
     inkscape:pageshadow="2"
     inkscape:zoom="1"
     inkscape:cx="19.56614"
     inkscape:cy="780.23862"
     inkscape:document-units="px"
     inkscape:current-layer="layer1"
     showgrid="false"
     inkscape:window-width="1680"
     inkscape:window-height="1026"
     inkscape:window-x="1366"
     inkscape:window-y="24"
     inkscape:window-maximized="1" />
  <metadata
     id="metadata8164">
    <rdf:RDF>
      <cc:Work
         rdf:about="">
        <dc:format>image/svg+xml</dc:format>
        <dc:type
           rdf:resource="http://purl.org/dc/dcmitype/StillImage" />
        <dc:title></dc:title>
      </cc:Work>
    </rdf:RDF>
  </metadata>
  <g
     inkscape:label="Layer 1"
     inkscape:groupmode="layer"
     id="layer1">
    <g
       transform="translate(-157.88459,15.20709)"
       id="g6973">
      <use
         height="1052.3622"
         width="744.09448"
         transform="translate(489.12698,215.58252)"
         id="use6971"
         xlink:href="#g6966"
         y="0"
         x="0" />
      <g
         transform="translate(184.93934,-23.849874)"
         inkscape:export-ydpi="90"
         inkscape:export-xdpi="90"
         inkscape:export-filename="/home/mauve/dev/goblit/graphics/goblit-standing.png"
         id="g3830">
        <path
           style="color:#000000;fill:none;stroke:#000000;stroke-width:3;stroke-linecap:round;stroke-linejoin:round;stroke-miterlimit:4;stroke-opacity:1;stroke-dasharray:none;stroke-dashoffset:0;marker:none;visibility:visible;display:inline;overflow:visible;enable-background:accumulate"
           d="m 102.5,130.61218 c -0.25,7.25 -0.25,17.25 -0.25,17.25"
           id="path3794"
           inkscape:connector-curvature="0" />
        <path
           style="color:#000000;fill:none;stroke:#000000;stroke-width:3;stroke-linecap:round;stroke-linejoin:round;stroke-miterlimit:4;stroke-opacity:1;stroke-dasharray:none;stroke-dashoffset:0;marker:none;visibility:visible;display:inline;overflow:visible;enable-background:accumulate"
           d="m 115.75,130.86218 c 0,15 -0.25,17.5 -0.25,17.5"
           id="path3802"
           inkscape:connector-curvature="0" />
        <path
           style="color:#000000;fill:#333333;fill-opacity:1;fill-rule:nonzero;stroke:#000000;stroke-width:2;stroke-linecap:butt;stroke-linejoin:miter;stroke-miterlimit:4;stroke-opacity:1;stroke-dasharray:none;stroke-dashoffset:0;marker:none;visibility:visible;display:inline;overflow:visible;enable-background:accumulate"
           d="m 100.71482,134.89113 17.06474,0 c 4.98173,0 10.84903,-8.73845 10.29767,-12.9047 l -4.16089,-31.441127 c -0.2048,-1.5475 -2.29803,-5.32842 -3.60202,-5.32842 l -19.5995,0 c -1.30398,0 -2.353757,1.26147 -2.353757,2.82842 l 0,44.017397 c 0,1.56695 1.049777,2.82843 2.353757,2.82843 z"
           id="rect2993"
           inkscape:connector-curvature="0"
           sodipodi:nodetypes="sssssssss" />
        <path
           style="fill:#333333;stroke:#000000;stroke-width:2;stroke-linecap:butt;stroke-linejoin:miter;stroke-opacity:1"
           d="m 96.474874,70.594416 c 4.885956,-2.585877 10.825056,-1.390613 15.468946,1.116435 5.78721,3.124283 11.28661,7.275099 14.80024,12.826882 2.52066,3.982819 3.71033,8.716697 3.8355,13.649851 0.054,2.126666 -1.23314,3.126126 -2.9785,3.213336 -9.8021,0.4898 -19.61036,0.65026 -29.425246,0.59887 -1.802031,-0.009 -4.646681,-0.12848 -4.737866,-2.303863 -0.128714,-3.07069 -0.135796,-6.171829 -0.125254,-9.260583 0.01897,-5.557872 -0.08603,-11.128004 0.268228,-16.672404 0.09774,-1.529712 1.623368,-2.496072 2.893952,-3.168524 z"
           id="path2985"
           inkscape:connector-curvature="0"
           sodipodi:nodetypes="ssssssssss" />
        <path
           style="fill:#ffffff;stroke:#000000;stroke-width:1px;stroke-linecap:butt;stroke-linejoin:miter;stroke-opacity:1"
           d="m 97.387533,73.896159 c 3.828887,-2.207011 7.274937,-1.255156 8.397027,-0.228812 1.12211,1.026344 15.53396,14.347555 14.30562,20.075003 -1.22835,5.727448 -18.35748,4.541834 -22.042819,4.095189 -3.685344,-0.446646 -0.659828,-23.94138 -0.659828,-23.94138 z"
           id="path2987"
           inkscape:connector-curvature="0" />
        <path
           sodipodi:type="arc"
           style="color:#000000;fill:#000000;fill-opacity:1;fill-rule:nonzero;stroke:none;stroke-width:70;marker:none;visibility:visible;display:inline;overflow:visible;enable-background:accumulate"
           id="path2989"
           sodipodi:cx="97.403961"
           sodipodi:cy="83.625893"
           sodipodi:rx="1.2374369"
           sodipodi:ry="1.2374369"
           d="m 98.641398,83.625893 c 0,0.683417 -0.554019,1.237437 -1.237437,1.237437 -0.683417,0 -1.237437,-0.55402 -1.237437,-1.237437 0,-0.683418 0.55402,-1.237437 1.237437,-1.237437 0.683418,0 1.237437,0.554019 1.237437,1.237437 z"
           transform="matrix(1.6148755,0,0,1.6148755,-57.009115,-52.180379)" />
        <path
           transform="matrix(1.6148755,0,0,1.6148755,-50.874,-52.180379)"
           d="m 98.641398,83.625893 c 0,0.683417 -0.554019,1.237437 -1.237437,1.237437 -0.683417,0 -1.237437,-0.55402 -1.237437,-1.237437 0,-0.683418 0.55402,-1.237437 1.237437,-1.237437 0.683418,0 1.237437,0.554019 1.237437,1.237437 z"
           sodipodi:ry="1.2374369"
           sodipodi:rx="1.2374369"
           sodipodi:cy="83.625893"
           sodipodi:cx="97.403961"
           id="path2991"
           style="color:#000000;fill:#000000;fill-opacity:1;fill-rule:nonzero;stroke:none;stroke-width:70;marker:none;visibility:visible;display:inline;overflow:visible;enable-background:accumulate"
           sodipodi:type="arc" />
        <path
           style="fill:none;stroke:#000000;stroke-width:3;stroke-linecap:round;stroke-linejoin:round;stroke-opacity:1"
           d="m 118,107.61218 c -3,10.5 -11,20 -11,20"
           id="path3013"
           inkscape:connector-curvature="0"
           sodipodi:nodetypes="cc" />
      </g>
    </g>
    <g
       id="g8220"
       transform="matrix(1,0,0,0.51644501,-0.625,71.73229)"
       style="color:#000000;fill:#214478;fill-opacity:1;fill-rule:evenodd;stroke:#0b1728;stroke-width:1.39151521;stroke-linecap:butt;stroke-linejoin:miter;stroke-miterlimit:4;stroke-opacity:1;stroke-dasharray:none;stroke-dashoffset:0;marker:none;visibility:visible;display:inline;overflow:visible;enable-background:accumulate"
       inkscape:export-filename="/home/mauve/dev/goblit/graphics/sock.png"
       inkscape:export-xdpi="90"
       inkscape:export-ydpi="90">
      <path
         style="color:#000000;fill:#214478;fill-opacity:1;fill-rule:evenodd;stroke:#0b1728;stroke-width:1.03708867;marker:none;visibility:visible;display:inline;overflow:visible;enable-background:accumulate;stroke-linecap:butt;stroke-linejoin:miter;stroke-miterlimit:4;stroke-opacity:1;stroke-dasharray:none;stroke-dashoffset:0"
         d="m 63.751682,127.13925 -5.400888,7.45894 -4.292736,0.0884 C 50.457821,134.76071 48,135.74977 48,137.75 c 0,2.00023 2.899,3.625 6.5,3.625 l 6,0 c 2.715313,0 5.024911,-0.94204 6,-2.25 0.0286,-0.0268 0.03487,-0.0665 0.0625,-0.0937 0.185888,-0.1836 0.361467,-0.35888 0.5,-0.5625 l 6.75,-9.90625 c 0.08691,-1.82383 -10.155503,-2.94592 -10.060818,-1.4233 z"
         transform="matrix(1,0,0,1.8002969,0,-113.13171)"
         id="rect8215"
         inkscape:connector-curvature="0"
         sodipodi:nodetypes="ccssssccccc" />
    </g>
    <rect
       style="color:#000000;fill:#0a0a0a;fill-opacity:1;fill-rule:evenodd;stroke:#1a1a1a;stroke-width:1px;stroke-opacity:1;marker:none;visibility:visible;display:inline;overflow:visible;enable-background:accumulate"
       id="rect8249"
       width="59"
       height="59"
       x="185"
       y="211.61218"
       rx="4.7019348"
       ry="4.7019348"
       inkscape:export-filename="/home/mauve/dev/goblit/graphics/item-bg.png"
       inkscape:export-xdpi="90"
       inkscape:export-ydpi="90" />
    <rect
       ry="4.7019348"
       rx="4.7019348"
       y="212.11218"
       x="298"
       height="58"
       width="58"
       id="rect8251"
       style="color:#000000;fill:#1e1e1e;fill-opacity:1;fill-rule:evenodd;stroke:#2a7fff;stroke-width:1.99999963999999997;stroke-linecap:butt;stroke-linejoin:miter;stroke-miterlimit:4;stroke-opacity:1;stroke-dasharray:none;stroke-dashoffset:0;marker:none;visibility:visible;display:inline;overflow:visible;enable-background:accumulate"
       inkscape:export-filename="/home/mauve/dev/goblit/graphics/item-bg-on.png"
       inkscape:export-xdpi="90"
       inkscape:export-ydpi="90" />
    <g
       id="g8314"
       inkscape:export-filename="/home/mauve/dev/goblit/graphics/sock-icon.png"
       inkscape:export-xdpi="90"
       inkscape:export-ydpi="90"
       transform="matrix(0.89840755,0,0,0.89840755,6.0225547,24.119741)">
      <g
         style="fill:#214478;stroke:#0b1728;stroke-width:1.03684366"
         id="g8226"
         transform="matrix(2.2104908,0,0,2.0854411,-75.351792,-28.487738)">
        <path
           style="color:#000000;fill:#214478;fill-opacity:1;fill-rule:evenodd;stroke:#0b1728;stroke-width:0.77275389;marker:none;visibility:visible;display:inline;overflow:visible;enable-background:accumulate"
           d="m 63.751682,127.13925 -5.400888,7.45894 -4.292736,0.0884 C 50.457821,134.76071 48,135.74977 48,137.75 c 0,2.00023 2.899,3.15415 6.5,3.15415 l 6,0 c 7.056506,-0.632 9.344802,-7.48951 13.3125,-12.3416 0.08691,-1.82383 -10.155503,-2.94592 -10.060818,-1.4233 z"
           transform="matrix(1,0,0,1.8002969,0,-113.13171)"
           id="path8228"
           inkscape:connector-curvature="0"
           sodipodi:nodetypes="ccsssccc" />
      </g>
      <path
         inkscape:connector-curvature="0"
         id="path8298"
         d="m 42.25,241.86218 c -1.25,6.75 1,14.75 1,14.75 l 0.25,0.75"
         style="fill:none;stroke:#000000;stroke-width:1.11308062px;stroke-linecap:butt;stroke-linejoin:miter;stroke-opacity:1" />
      <path
         inkscape:connector-curvature="0"
         id="path8300"
         d="m 63.75,217.86218 c 5.25,-0.25 17,2.5 17,2.5"
         style="fill:none;stroke:#000000;stroke-width:1.11308062px;stroke-linecap:butt;stroke-linejoin:miter;stroke-opacity:1" />
      <path
         inkscape:connector-curvature="0"
         id="path8302"
         d="m 69.5,209.86218 -2,5.25"
         style="fill:none;stroke:#000000;stroke-width:1.11308062px;stroke-linecap:butt;stroke-linejoin:miter;stroke-opacity:1" />
      <path
         inkscape:connector-curvature="0"
         id="path8304"
         d="m 72.25,211.11218 -1.75,3.5"
         style="fill:none;stroke:#000000;stroke-width:1.11308062px;stroke-linecap:butt;stroke-linejoin:miter;stroke-opacity:1" />
      <path
         inkscape:connector-curvature="0"
         id="path8306"
         d="m 76.25,211.11218 -1.5,3.5"
         style="fill:none;stroke:#000000;stroke-width:1.11308062px;stroke-linecap:butt;stroke-linejoin:miter;stroke-opacity:1" />
      <path
         inkscape:connector-curvature="0"
         id="path8308"
         d="m 79.5,212.36218 -0.75,3.25"
         style="fill:none;stroke:#000000;stroke-width:1.11308062px;stroke-linecap:butt;stroke-linejoin:miter;stroke-opacity:1" />
      <path
         inkscape:connector-curvature="0"
         id="path8310"
         d="m 83.5,214.11218 -1.25,3"
         style="fill:none;stroke:#000000;stroke-width:1.11308062px;stroke-linecap:butt;stroke-linejoin:miter;stroke-opacity:1" />
      <path
         inkscape:connector-curvature="0"
         id="path8312"
         d="m 86,215.86218 -1.25,3"
         style="fill:none;stroke:#000000;stroke-width:1.11308062px;stroke-linecap:butt;stroke-linejoin:miter;stroke-opacity:1" />
    </g>
  </g>
</svg>
