<?xml version="1.0" encoding="UTF-8" standalone="no"?>
<!-- Created with Inkscape (http://www.inkscape.org/) -->

<svg
   xmlns:dc="http://purl.org/dc/elements/1.1/"
   xmlns:cc="http://creativecommons.org/ns#"
   xmlns:rdf="http://www.w3.org/1999/02/22-rdf-syntax-ns#"
   xmlns:svg="http://www.w3.org/2000/svg"
   xmlns="http://www.w3.org/2000/svg"
   xmlns:sodipodi="http://sodipodi.sourceforge.net/DTD/sodipodi-0.dtd"
   xmlns:inkscape="http://www.inkscape.org/namespaces/inkscape"
   width="527.90802"
   height="211.00879"
   id="svg9763"
   version="1.1"
   inkscape:version="0.48.4 r9939"
   sodipodi:docname="title.svg">
  <defs
     id="defs9765" />
  <sodipodi:namedview
     id="base"
     pagecolor="#000000"
     bordercolor="#666666"
     borderopacity="1.0"
     inkscape:pageopacity="1"
     inkscape:pageshadow="2"
     inkscape:zoom="1"
     inkscape:cx="376.1264"
     inkscape:cy="56.969555"
     inkscape:document-units="px"
     inkscape:current-layer="text10310"
     showgrid="false"
     inkscape:window-width="1680"
     inkscape:window-height="1026"
     inkscape:window-x="1366"
     inkscape:window-y="24"
     inkscape:window-maximized="1"
     fit-margin-top="0"
     fit-margin-left="0"
     fit-margin-right="0"
     fit-margin-bottom="0" />
  <metadata
     id="metadata9768">
    <rdf:RDF>
      <cc:Work
         rdf:about="">
        <dc:format>image/svg+xml</dc:format>
        <dc:type
           rdf:resource="http://purl.org/dc/dcmitype/StillImage" />
        <dc:title></dc:title>
      </cc:Work>
    </rdf:RDF>
  </metadata>
  <g
     inkscape:label="Layer 1"
     inkscape:groupmode="layer"
     id="layer1"
     transform="translate(-75.903322,-125.6698)">
    <text
       xml:space="preserve"
       style="font-size:62.20615387px;font-style:normal;font-variant:normal;font-weight:normal;font-stretch:normal;line-height:125%;letter-spacing:0px;word-spacing:0px;fill:#b3b3b3;fill-opacity:1;stroke:none;font-family:Liberation Serif;-inkscape-font-specification:Liberation Serif"
       x="74.77948"
       y="168.83139"
       id="text10279"
       sodipodi:linespacing="125%"><tspan
         sodipodi:role="line"
         id="tspan10281"
         x="74.77948"
         y="168.83139">The Legend</tspan><tspan
         sodipodi:role="line"
         x="74.77948"
         y="246.58908"
         id="tspan10283" /></text>
    <text
       xml:space="preserve"
       style="font-size:62.20615387px;font-style:normal;font-variant:normal;font-weight:normal;font-stretch:normal;text-indent:0;text-align:start;text-decoration:none;line-height:125%;letter-spacing:0px;word-spacing:0px;text-transform:none;direction:ltr;block-progression:tb;writing-mode:lr-tb;text-anchor:start;baseline-shift:baseline;color:#000000;fill:#999999;fill-opacity:1;fill-rule:nonzero;stroke:none;marker:none;visibility:visible;display:inline;overflow:visible;enable-background:accumulate;font-family:Liberation Serif;-inkscape-font-specification:Liberation Serif"
       x="250.50369"
       y="218.0845"
       id="text10285"
       sodipodi:linespacing="125%"><tspan
         sodipodi:role="line"
         id="tspan10287"
         x="250.50369"
         y="218.0845">of</tspan></text>
    <g
       style="font-size:115.79517365px;font-style:normal;font-variant:normal;font-weight:normal;font-stretch:normal;line-height:125%;letter-spacing:0px;word-spacing:0px;fill:#ffffff;fill-opacity:1;stroke:none;font-family:Liberation Serif;-inkscape-font-specification:Liberation Serif"
       id="text10310">
      <path
         d="m 384.65894,252.02319 c -2.18631,0.76222 -4.6364,1.48431 -7.35028,2.16628 -2.67632,0.64187 -5.46566,1.20349 -8.36801,1.68488 -2.90248,0.4814 -5.82374,0.86251 -8.76379,1.14331 -2.94017,0.28082 -5.76719,0.42123 -8.48109,0.42123 -5.99335,0 -11.49663,-0.8625 -16.50986,-2.5875 -5.0133,-1.76511 -9.32922,-4.3526 -12.9478,-7.76249 -3.58092,-3.44998 -6.3891,-7.7023 -8.42455,-12.75696 -1.99778,-5.05461 -2.99666,-10.89152 -2.99666,-17.51073 0,-7.06041 0.98003,-13.21824 2.94011,-18.47351 1.96007,-5.29529 4.7494,-9.68801 8.36802,-13.17819 3.65627,-3.53015 8.06643,-6.15775 13.2305,-7.88284 5.2017,-1.76503 11.00653,-2.64758 17.41451,-2.64767 3.2793,9e-5 6.2571,0.14049 8.93341,0.42123 2.71389,0.28089 5.23937,0.66199 7.57645,1.14331 2.33694,0.48147 4.54202,1.0431 6.61525,1.68488 2.07308,0.60182 4.16508,1.22362 6.27601,1.86541 l 0,18.53369 -5.08866,0 -1.35697,-10.47033 c -1.31935,-0.96273 -2.77056,-1.86534 -4.35363,-2.70785 -1.5832,-0.84237 -3.27942,-1.56446 -5.08866,-2.16628 -1.77166,-0.64178 -3.6375,-1.12318 -5.59752,-1.44419 -1.92243,-0.36096 -3.8825,-0.54148 -5.88022,-0.54156 -3.84481,8e-5 -7.31263,0.58176 -10.40347,1.74506 -3.09093,1.12332 -5.74833,3.06895 -7.97223,5.83691 -2.18627,2.72796 -3.88248,6.3986 -5.08865,11.0119 -1.16854,4.5733 -1.75279,10.28986 -1.75276,17.14968 -3e-5,4.65352 0.33922,8.72531 1.01773,12.2154 0.67846,3.49012 1.60195,6.5189 2.77049,9.08632 1.16847,2.56745 2.54429,4.71367 4.12746,6.43865 1.6208,1.68489 3.33586,3.02878 5.1452,4.03169 1.84695,1.00291 3.76933,1.72499 5.76714,2.16627 1.99772,0.40116 3.97664,0.60175 5.93676,0.60174 2.1485,1e-5 4.31588,-0.18051 6.50217,-0.54157 2.18618,-0.40115 4.18395,-0.92266 5.99331,-1.56453 l 0,-23.34764 -9.72499,-1.56453 0,-4.45291 34.9421,0 0,4.45291 -7.40682,1.56453 0,26.236"
         style="font-weight:bold;-inkscape-font-specification:Liberation Serif Bold"
         id="path10317"
         inkscape:connector-curvature="0" />
      <path
         d="m 450.66292,229.45128 c -7e-5,4.52328 -0.54804,8.51881 -1.64394,11.98661 -1.05217,3.46784 -2.73994,6.3891 -5.06329,8.7638 -2.32348,2.37471 -5.32639,4.18401 -9.00875,5.4279 -3.63861,1.2062 -8.04433,1.8093 -13.21719,1.8093 -4.86606,0 -9.07452,-0.6031 -12.62539,-1.8093 -3.5509,-1.2062 -6.48805,-2.99665 -8.81146,-5.37136 -2.27959,-2.3747 -3.96736,-5.29596 -5.06331,-8.7638 -1.09596,-3.5055 -1.64393,-7.51987 -1.64392,-12.04315 -10e-6,-4.48552 0.54796,-8.44336 1.64392,-11.87352 1.09595,-3.46779 2.80563,-6.3702 5.12907,-8.70726 2.32341,-2.33696 5.28248,-4.10856 8.87722,-5.31482 3.63854,-1.20614 7.97851,-1.80924 13.01992,-1.8093 9.77587,6e-5 16.94339,2.35592 21.50261,7.06758 4.60295,4.67407 6.90444,11.55317 6.90451,20.63732 m -16.38857,0 c -5e-5,-3.65626 -0.17239,-6.86022 -0.51701,-9.6119 -0.34474,-2.7516 -0.97666,-5.05092 -1.89576,-6.89795 -0.91921,-1.84695 -2.18304,-3.22277 -3.79152,-4.12747 -1.60855,-0.9046 -3.70537,-1.35693 -6.29045,-1.35697 -2.52772,4e-5 -4.56709,0.45237 -6.11811,1.35697 -1.55112,0.9047 -2.75752,2.28052 -3.61918,4.12747 -0.80429,1.84703 -1.35003,4.14635 -1.63724,6.89795 -0.28727,2.75168 -0.43088,5.95564 -0.43084,9.6119 -4e-5,3.69401 0.14356,6.93567 0.43084,9.72499 0.28721,2.75166 0.83295,5.06982 1.63724,6.95449 0.86166,1.8847 2.06806,3.29821 3.61918,4.24055 1.55102,0.94235 3.59039,1.41352 6.11811,1.41352 2.58508,0 4.6819,-0.47117 6.29045,-1.41352 1.60848,-0.94234 2.87231,-2.35585 3.79152,-4.24055 0.9191,-1.88467 1.55102,-4.20283 1.89576,-6.95449 0.34462,-2.78932 0.51696,-6.03098 0.51701,-9.72499"
         style="font-weight:bold;-inkscape-font-specification:Liberation Serif Bold"
         id="path10319"
         inkscape:connector-curvature="0"
         sodipodi:nodetypes="ccccssccsccccccccccccccccccscccc" />
      <path
         d="m 490.21358,228.20739 c -5e-5,-3.84473 -0.24506,-7.04869 -0.73503,-9.6119 -0.49006,-2.60083 -1.20624,-4.67398 -2.14854,-6.21947 -0.94239,-1.58309 -2.11089,-2.69506 -3.50552,-3.3359 -1.35701,-0.67844 -2.90245,-1.01768 -4.63633,-1.01773 -1.4324,5e-5 -2.99668,0.16967 -4.69287,0.50887 -1.69625,0.3016 -3.09091,0.77277 -4.18401,1.41351 l 0,40.6527 c 1.20618,0.30156 2.60084,0.52772 4.18401,0.67849 1.6208,0.15078 3.18509,0.22617 4.69287,0.22616 2.03543,1e-5 3.75049,-0.50886 5.14519,-1.52659 1.39463,-1.01773 2.52544,-2.50663 3.39244,-4.46671 0.90461,-1.99776 1.5454,-4.44785 1.92238,-7.35028 0.37689,-2.9024 0.56536,-6.21944 0.56541,-9.95115 m -36.24254,-47.26795 -5.42789,-1.30044 0,-3.67513 21.76813,0 0,19.50651 c -2e-5,1.39472 -0.0566,3.07209 -0.16962,5.03211 -0.0754,1.96013 -0.20734,3.84481 -0.39578,5.65406 0.82923,-0.67843 1.80927,-1.28153 2.94011,-1.8093 1.16848,-0.52766 2.41237,-0.97998 3.73168,-1.35697 1.35694,-0.41458 2.73276,-0.71613 4.12746,-0.90465 1.39464,-0.22611 2.75161,-0.33919 4.07093,-0.33925 3.9578,6e-5 7.33138,0.54662 10.12077,1.63968 2.78928,1.05548 5.06975,2.67631 6.84141,4.86249 1.80924,2.18629 3.12852,4.93793 3.95784,8.25493 0.82921,3.31709 1.24384,7.23723 1.2439,11.76045 -6e-5,4.29711 -0.54662,8.2361 -1.63968,11.81699 -1.05548,3.54322 -2.65747,6.61526 -4.80595,9.21612 -2.1486,2.56318 -4.86254,4.56094 -8.14185,5.9933 -3.24171,1.43237 -7.08629,1.57696 -11.42121,2.14855 -3.58757,0.47304 -7.72889,0.6389 -12.42396,0.49757 -4.65281,-0.10887 -9.53578,-0.37749 -14.64891,-0.80587 l 0.27262,-76.19115"
         style="font-weight:bold;-inkscape-font-specification:Liberation Serif Bold"
         id="path10321"
         inkscape:connector-curvature="0"
         sodipodi:nodetypes="ccccccccccccccccccccccccccccccccsccc" />
      <path
         d="m 528.89839,251.21942 5.82369,1.35697 0,3.73168 -27.93107,0 0,-3.73168 5.76715,-1.35697 0,-70.1669 -5.4279,-1.35697 0,-3.73168 21.76813,0 0,75.25555"
         style="font-weight:bold;-inkscape-font-specification:Liberation Serif Bold"
         id="path10323"
         inkscape:connector-curvature="0" />
      <path
         d="m 561.29616,251.21942 5.82368,1.35697 0,3.73168 -27.93106,0 0,-3.73168 5.76714,-1.35697 0,-42.97087 -5.42789,-1.35697 0,-3.73168 21.76813,0 0,48.05952 m -16.90564,-66.60484 c -1e-5,-1.20613 0.22615,-2.33694 0.67849,-3.39244 0.45231,-1.05535 1.07426,-1.96 1.86584,-2.71395 0.79155,-0.79149 1.71505,-1.41343 2.77049,-1.86584 1.05541,-0.45224 2.18622,-0.6784 3.39243,-0.67848 1.20619,8e-5 2.337,0.22624 3.39244,0.67848 1.0554,0.45241 1.96005,1.07435 2.71395,1.86584 0.79154,0.75395 1.41349,1.6586 1.86584,2.71395 0.4523,1.0555 0.67846,2.18631 0.67849,3.39244 -3e-5,1.20627 -0.22619,2.33708 -0.67849,3.39244 -0.45235,1.05549 -1.0743,1.97898 -1.86584,2.77049 -0.7539,0.79163 -1.65855,1.41357 -2.71395,1.86584 -1.05544,0.45238 -2.18625,0.67855 -3.39244,0.67848 -1.20621,7e-5 -2.33702,-0.2261 -3.39243,-0.67848 -1.05544,-0.45227 -1.97894,-1.07421 -2.77049,-1.86584 -0.79158,-0.79151 -1.41353,-1.715 -1.86584,-2.77049 -0.45234,-1.05536 -0.6785,-2.18617 -0.67849,-3.39244"
         style="font-weight:bold;-inkscape-font-specification:Liberation Serif Bold"
         id="path10325"
         inkscape:connector-curvature="0" />
      <path
         d="m 590.52431,257.43889 c -2.82705,0 -5.2583,-0.33925 -7.29374,-1.01773 -1.99778,-0.67849 -3.63746,-1.60199 -4.91903,-2.77049 -1.2816,-1.2062 -2.22394,-2.61971 -2.82703,-4.24055 -0.60311,-1.65852 -0.90466,-3.44897 -0.90465,-5.37136 l 0,-34.99864 -6.9545,0 0,-3.67514 8.19839,-2.20508 6.61525,-12.04315 8.48109,0 0,12.04315 11.19505,0 0,5.88022 -11.19505,0 0,33.98091 c -2e-5,2.45011 0.50884,4.2971 1.5266,5.54098 1.0177,1.2439 2.35583,1.86585 4.01438,1.86584 1.28156,1e-5 2.5443,-0.0942 3.78822,-0.2827 1.28156,-0.18846 2.46891,-0.39578 3.56206,-0.62195 l 0,4.80595 c -0.52775,0.37694 -1.30047,0.75388 -2.31816,1.13082 -1.01777,0.37693 -2.14858,0.69733 -3.39244,0.96119 -1.20623,0.30155 -2.48782,0.54655 -3.84476,0.73502 -1.31931,0.18847 -2.5632,0.28271 -3.73168,0.28271"
         style="font-weight:bold;-inkscape-font-specification:Liberation Serif Bold"
         id="path10327"
         inkscape:connector-curvature="0" />
      <text
         xml:space="preserve"
         style="font-size:20px;font-style:normal;font-variant:normal;font-weight:normal;font-stretch:normal;line-height:125%;letter-spacing:0px;word-spacing:0px;fill:#666666;fill-opacity:1;stroke:none;font-family:Liberation Serif;-inkscape-font-specification:Liberation Serif"
         x="150"
         y="332.36218"
         id="text10329"
         sodipodi:linespacing="125%"><tspan
           sodipodi:role="line"
           id="tspan10331"
           x="150"
           y="332.36218">Your progress will autosave at various checkpoints.</tspan></text>
    </g>
  </g>
</svg>
